<?xml version="1.0" encoding="UTF-8"?>
<svg width="1212px" height="534px" viewBox="0 0 1212 534" version="1.1" xmlns="http://www.w3.org/2000/svg" xmlns:xlink="http://www.w3.org/1999/xlink" style="background: #14064A;">
    <!-- Generator: Sketch 47 (45396) - http://www.bohemiancoding.com/sketch -->
    <title>Full Logo</title>
    <desc>Created with Sketch.</desc>
    <defs>
        <linearGradient x1="0%" y1="-858.709675%" x2="1046.33051%" y2="50%" id="linearGradient-1">
            <stop stop-color="#3023AE" offset="0%"></stop>
            <stop stop-color="#C86DD7" offset="100%"></stop>
        </linearGradient>
        <linearGradient x1="50%" y1="32.165538%" x2="100%" y2="100%" id="linearGradient-2">
            <stop stop-color="#000000" stop-opacity="0" offset="0%"></stop>
            <stop stop-color="#000000" stop-opacity="0.55" offset="100%"></stop>
        </linearGradient>
        <linearGradient x1="72.0178821%" y1="50%" x2="0%" y2="0%" id="linearGradient-3">
            <stop stop-color="#000000" stop-opacity="0" offset="0%"></stop>
            <stop stop-color="#000000" stop-opacity="0.55" offset="100%"></stop>
        </linearGradient>
        <linearGradient x1="50%" y1="37.240849%" x2="100%" y2="86.9926469%" id="linearGradient-4">
            <stop stop-color="#000000" stop-opacity="0" offset="0%"></stop>
            <stop stop-color="#5F5F5F" stop-opacity="0.55" offset="100%"></stop>
        </linearGradient>
        <linearGradient x1="68.5905865%" y1="67.3732976%" x2="0%" y2="-15.377596%" id="linearGradient-5">
            <stop stop-color="#000000" stop-opacity="0" offset="0%"></stop>
            <stop stop-color="#000000" stop-opacity="0.55" offset="100%"></stop>
        </linearGradient>
    </defs>
    <g id="Page-1" stroke="none" stroke-width="1" fill="none" fill-rule="evenodd">
        <g id="Full-Logo">
            <g id="Page-1" opacity="0.389945652" transform="translate(-35.000000, -112.000000)" stroke="url(#linearGradient-1)">
                <polygon id="Fill-9" points="131 587.5 131 653 327 554.752276 261.665153 522"></polygon>
                <polygon id="Fill-10" points="327 686.502276 327 752 523 653.75569 457.665153 621"></polygon>
                <polygon id="Fill-12" points="588.182644 294.200906 784.273966 392 588.182644 489.799094 326.726034 359.397281 457.45661 294.200906 457.45661 229 196 359.397281 588.182644 555 915 392 588.182644 229"></polygon>
                <polygon id="Fill-13" points="522.665153 0 0 261.330306 65.3303063 294 588 32.6651531"></polygon>
                <polygon id="Fill-15" points="196 359 196 424.330306 457.334847 555 457.334847 620.330306 522.665153 653 522.665153 587.665153 588 620.330306 588 555"></polygon>
                <polygon id="Fill-16" points="457 424.397281 523 457 523 131 457 163.602719"></polygon>
                <polygon id="Fill-17" points="588 294 588 359.504552 718.665153 425 784 392.254552"></polygon>
                <polygon id="Fill-19" points="0 718.330609 66 751 66 293.669391 0 261"></polygon>
                <polygon id="Fill-20" points="458 294 327 359.334847 392.497724 392 458 359.334847"></polygon>
                <polygon id="Fill-22" points="588 555.577275 588 621 915 457.43182 915 392"></polygon>
                <polygon id="Fill-23" points="522.748866 456.321452 588 488.959819 588 32 66 293.120544 66 750.080363 261.748866 652.160726 261.748866 848 588 684.799093 588 619.517822 522.748866 586.879456 522.748866 652.160726 327 750.080363 327 554.241089 131.251134 652.160726 131.251134 325.758911 522.748866 129.919637"></polygon>
            </g>
            <g id="Group" transform="translate(91.000000, 156.000000)">
                <g id="Logo" transform="translate(0.000000, 36.000000)">
                    <g id="Group-10">
                        <g id="Group-3" transform="translate(0.000000, 0.476867)"></g>
                        <path d="M220.446132,89.8722674 C220.172072,92.413894 219.100743,94.888415 217.157404,96.8344789 L145.552814,169.165985 C141.084794,173.67884 133.842947,173.67884 129.399842,169.165985 L108.413435,147.968987 L124.3837,131.830077 L133.867862,141.409409 C136.907444,144.462716 141.815622,144.462716 144.838595,141.409409 L148.417994,137.777316 L193.438695,92.3048474 L197.034703,88.6979185 C198.330263,87.3725818 199.077702,85.6949405 199.252104,83.9585817 L198.87008,34.1074697 C198.87008,29.7707668 195.406949,26.2728846 191.129941,26.2728846 L142.122903,26.2728846 C140.428709,26.4574252 138.767735,27.1955874 137.455566,28.520924 L133.867862,32.1362411 L126.136028,39.9624379 L110.140848,56.0929593 L88.8388562,77.6087093 L85.267762,81.2324146 C82.2364844,84.29411 82.2364844,89.2515401 85.267762,92.3048474 L110.282031,117.59529 L94.3117655,133.725812 L57.7869469,96.8344789 C53.3189268,92.3216238 53.3189268,85.0071076 57.7869469,80.519417 L129.399842,8.18791112 C131.318267,6.23345897 133.768203,5.1262157 136.292884,4.8745695 L208.47051,4.8745695 C214.773906,4.8745695 219.881401,10.0249284 219.881401,16.42513 L220.446132,89.8722674 Z" id="Fill-4" fill="#FFFFFF"></path>
                        <polygon id="Fill-6" fill="url(#linearGradient-2)" points="110.389885 117.514968 94.2771496 133.695162 74.1377697 113.941869 97.1027891 104.374742"></polygon>
                        <polygon id="Fill-8" fill="url(#linearGradient-3)" points="108.411774 147.969825 124.382039 131.830916 133.866201 141.410248 126.275549 166.012858"></polygon>
                        <path d="M91.0479516,165.501177 C89.1212217,167.447241 86.6795899,168.554485 84.1549094,168.814519 L11.9772836,168.814519 C5.67388723,168.814519 0.541477529,163.655772 0.541477529,157.289123 L0.00166097401,83.816821 C0.250807076,81.2751944 1.34704993,78.8090617 3.28208465,76.8546095 L74.8949793,4.52310364 C79.3463897,0.010248464 86.5799315,0.010248464 91.0479516,4.52310364 L112.034358,25.7201018 L96.0474834,41.8757878 L86.5633218,32.2796794 C83.540349,29.217984 78.6321708,29.217984 75.6091981,32.2796794 L72.0131894,35.9117729 L26.9841838,81.3842411 L23.4130897,84.99117 C22.1009202,86.3248948 21.3534819,87.994148 21.1873845,89.7221185 L21.5527988,139.581619 C21.5527988,143.909933 25.0408442,147.416204 29.3178523,147.416204 L78.3082809,147.416204 C80.0190841,147.24844 81.6800582,146.493501 82.9839228,145.168164 L86.5633218,141.561236 L94.3200704,133.726651 L110.282031,117.596129 L131.584022,96.0803792 L135.155117,92.4566739 C138.211309,89.3949785 138.211309,84.4375483 135.155117,81.3842411 L110.140848,56.0937981 L126.136028,39.9632767 L162.660846,76.8546095 C167.103952,81.3674647 167.103952,88.6735927 162.660846,93.1696715 L91.0479516,165.501177 Z" id="Fill-1" fill="#FFFFFF"></path>
                        <polygon id="Fill-10" fill="url(#linearGradient-4)" points="112.032697 25.7201018 96.0458224 41.8757878 82.7663352 28.8237383 91.0462906 4.52310364"></polygon>
                        <polygon id="Fill-12" fill="url(#linearGradient-5)" points="110.139187 56.0937981 126.134367 39.9632767 139.687915 53.3844073 123.39376 69.850457"></polygon>
                    </g>
                </g>
                <path d="M287.7525,155.715 C289.78251,158.180012 291.993738,159.919995 294.38625,160.935 C296.778762,161.950005 299.304153,162.4575 301.9625,162.4575 C304.717514,162.4575 307.194572,161.962088 309.39375,160.97125 C311.592928,159.980412 313.465826,158.433761 315.0125,156.33125 C316.559174,154.228739 317.743329,151.546266 318.565,148.28375 C319.386671,145.021234 319.7975,141.118356 319.7975,136.575 C319.7975,128.406626 318.44418,122.497935 315.7375,118.84875 C313.03082,115.199565 309.140025,113.375 304.065,113.375 C300.633316,113.375 297.636679,114.160409 295.075,115.73125 C292.513321,117.302091 290.072512,119.513319 287.7525,122.365 L287.7525,155.715 Z M287.7525,109.75 C290.749182,106.608318 294.072065,104.107093 297.72125,102.24625 C301.370435,100.385407 305.539143,99.455 310.2275,99.455 C314.529188,99.455 318.407899,100.300825 321.86375,101.9925 C325.319601,103.684175 328.267904,106.112901 330.70875,109.27875 C333.149596,112.444599 335.022493,116.274978 336.3275,120.77 C337.632507,125.265022 338.285,130.315805 338.285,135.9225 C338.285,141.964197 337.535841,147.449975 336.0375,152.38 C334.539159,157.310025 332.400431,161.527066 329.62125,165.03125 C326.842069,168.535434 323.49502,171.254157 319.58,173.1875 C315.66498,175.120843 311.315024,176.0875 306.53,176.0875 C304.209988,176.0875 302.107509,175.857919 300.2225,175.39875 C298.337491,174.939581 296.597508,174.299171 295.0025,173.4775 C293.407492,172.655829 291.945423,171.652923 290.61625,170.46875 C289.287077,169.284577 288.018339,167.967507 286.81,166.5175 L286.0125,171.52 C285.722499,172.776673 285.227087,173.670831 284.52625,174.2025 C283.825413,174.734169 282.870839,175 281.6625,175 L269.845,175 L269.845,67.265 L287.7525,67.265 L287.7525,109.75 Z M374.347964,100.615 L374.347964,175 L356.367964,175 L356.367964,100.615 L374.347964,100.615 Z M376.812964,78.9375 C376.812964,80.4841744 376.4988,81.9341599 375.870464,83.2875 C375.242127,84.6408401 374.408386,85.8249949 373.369214,86.84 C372.330042,87.8550051 371.109637,88.6645803 369.707964,89.26875 C368.30629,89.8729197 366.807972,90.175 365.212964,90.175 C363.666289,90.175 362.204221,89.8729197 360.826714,89.26875 C359.449207,88.6645803 358.252969,87.8550051 357.237964,86.84 C356.222959,85.8249949 355.413383,84.6408401 354.809214,83.2875 C354.205044,81.9341599 353.902964,80.4841744 353.902964,78.9375 C353.902964,77.342492 354.205044,75.8441737 354.809214,74.4425 C355.413383,73.0408263 356.222959,71.8325051 357.237964,70.8175 C358.252969,69.8024949 359.449207,68.9929197 360.826714,68.38875 C362.204221,67.7845803 363.666289,67.4825 365.212964,67.4825 C366.807972,67.4825 368.30629,67.7845803 369.707964,68.38875 C371.109637,68.9929197 372.330042,69.8024949 373.369214,70.8175 C374.408386,71.8325051 375.242127,73.0408263 375.870464,74.4425 C376.4988,75.8441737 376.812964,77.342492 376.812964,78.9375 Z M421.068427,176.16 C414.591728,176.16 409.625528,174.335435 406.169677,170.68625 C402.713827,167.037065 400.985927,161.998365 400.985927,155.57 L400.985927,114.0275 L393.373427,114.0275 C392.406756,114.0275 391.585097,113.713336 390.908427,113.085 C390.231757,112.456664 389.893427,111.514173 389.893427,110.2575 L389.893427,103.1525 L401.855927,101.195 L405.625927,80.895 C405.867595,79.9283285 406.326757,79.1791693 407.003427,78.6475 C407.680097,78.1158307 408.550089,77.85 409.613427,77.85 L418.893427,77.85 L418.893427,101.2675 L438.758427,101.2675 L438.758427,114.0275 L418.893427,114.0275 L418.893427,154.3375 C418.893427,156.657512 419.461338,158.469993 420.597177,159.775 C421.733016,161.080007 423.291751,161.7325 425.273427,161.7325 C426.3851,161.7325 427.315507,161.599585 428.064677,161.33375 C428.813848,161.067915 429.466341,160.790001 430.022177,160.5 C430.578014,160.209999 431.073425,159.932085 431.508427,159.66625 C431.94343,159.400415 432.378425,159.2675 432.813427,159.2675 C433.345097,159.2675 433.780092,159.400415 434.118427,159.66625 C434.456762,159.932085 434.819259,160.330831 435.205927,160.8625 L440.570927,169.5625 C437.960914,171.737511 434.964278,173.380828 431.580927,174.4925 C428.197577,175.604172 424.693446,176.16 421.068427,176.16 Z M499.253891,115.115 C498.770555,115.888337 498.26306,116.432082 497.731391,116.74625 C497.199722,117.060418 496.523062,117.2175 495.701391,117.2175 C494.831387,117.2175 493.900979,116.975836 492.910141,116.4925 C491.919303,116.009164 490.771398,115.46542 489.466391,114.86125 C488.161385,114.25708 486.675149,113.713336 485.007641,113.23 C483.340133,112.746664 481.370569,112.505 479.098891,112.505 C475.57054,112.505 472.803484,113.254159 470.797641,114.7525 C468.791798,116.250841 467.788891,118.208321 467.788891,120.625 C467.788891,122.220008 468.308469,123.561245 469.347641,124.64875 C470.386813,125.736255 471.764299,126.690829 473.480141,127.5125 C475.195983,128.334171 477.14138,129.071247 479.316391,129.72375 C481.491402,130.376253 483.70263,131.089163 485.950141,131.8625 C488.197652,132.635837 490.40888,133.517912 492.583891,134.50875 C494.758902,135.499588 496.704299,136.756242 498.420141,138.27875 C500.135983,139.801258 501.513469,141.625823 502.552641,143.7525 C503.591813,145.879177 504.111391,148.440818 504.111391,151.4375 C504.111391,155.014185 503.470981,158.312902 502.190141,161.33375 C500.909301,164.354598 499.012237,166.964572 496.498891,169.16375 C493.985545,171.362928 490.88016,173.078744 487.182641,174.31125 C483.485123,175.543756 479.219749,176.16 474.386391,176.16 C471.824712,176.16 469.323487,175.930419 466.882641,175.47125 C464.441796,175.012081 462.097652,174.371671 459.850141,173.55 C457.60263,172.728329 455.524317,171.761672 453.615141,170.65 C451.705965,169.538328 450.026398,168.330007 448.576391,167.025 L452.708891,160.21 C453.24056,159.388329 453.868887,158.760002 454.593891,158.325 C455.318895,157.889998 456.237219,157.6725 457.348891,157.6725 C458.460563,157.6725 459.511803,157.986664 460.502641,158.615 C461.493479,159.243336 462.641385,159.919996 463.946391,160.645 C465.251398,161.370004 466.785966,162.046664 468.550141,162.675 C470.314317,163.303336 472.549711,163.6175 475.256391,163.6175 C477.383068,163.6175 479.207633,163.363753 480.730141,162.85625 C482.252649,162.348747 483.509303,161.684171 484.500141,160.8625 C485.490979,160.040829 486.215972,159.086255 486.675141,157.99875 C487.13431,156.911245 487.363891,155.787506 487.363891,154.6275 C487.363891,152.887491 486.844313,151.461672 485.805141,150.35 C484.765969,149.238328 483.388483,148.271671 481.672641,147.45 C479.956799,146.628329 477.999319,145.891253 475.800141,145.23875 C473.600963,144.586247 471.353486,143.873337 469.057641,143.1 C466.761796,142.326663 464.514319,141.420422 462.315141,140.38125 C460.115963,139.342078 458.158483,138.025008 456.442641,136.43 C454.726799,134.834992 453.349313,132.877512 452.310141,130.5575 C451.270969,128.237488 450.751391,125.434183 450.751391,122.1475 C450.751391,119.102485 451.355552,116.202514 452.563891,113.4475 C453.77223,110.692486 455.548463,108.287927 457.892641,106.23375 C460.236819,104.179573 463.160957,102.536256 466.665141,101.30375 C470.169325,100.071244 474.217201,99.455 478.808891,99.455 C483.93225,99.455 488.59637,100.300825 492.801391,101.9925 C497.006412,103.684175 500.510544,105.907486 503.313891,108.6625 L499.253891,115.115 Z M518.641855,165.14 C518.641855,163.641659 518.919769,162.21584 519.475605,160.8625 C520.031441,159.50916 520.792683,158.349172 521.759355,157.3825 C522.726026,156.415828 523.886015,155.642503 525.239355,155.0625 C526.592695,154.482497 528.04268,154.1925 529.589355,154.1925 C531.136029,154.1925 532.573931,154.482497 533.903105,155.0625 C535.232278,155.642503 536.392266,156.415828 537.383105,157.3825 C538.373943,158.349172 539.159352,159.50916 539.739355,160.8625 C540.319358,162.21584 540.609355,163.641659 540.609355,165.14 C540.609355,166.686674 540.319358,168.124577 539.739355,169.45375 C539.159352,170.782923 538.373943,171.930828 537.383105,172.8975 C536.392266,173.864171 535.232278,174.625414 533.903105,175.18125 C532.573931,175.737086 531.136029,176.015 529.589355,176.015 C528.04268,176.015 526.592695,175.737086 525.239355,175.18125 C523.886015,174.625414 522.726026,173.864171 521.759355,172.8975 C520.792683,171.930828 520.031441,170.782923 519.475605,169.45375 C518.919769,168.124577 518.641855,166.686674 518.641855,165.14 Z M607.267318,129.2525 C607.267318,126.932488 606.941072,124.745427 606.288568,122.69125 C605.636065,120.637073 604.657325,118.836674 603.352318,117.29 C602.047312,115.743326 600.391912,114.522921 598.386068,113.62875 C596.380225,112.734579 594.048165,112.2875 591.389818,112.2875 C586.218126,112.2875 582.146083,113.761652 579.173568,116.71 C576.201054,119.658348 574.303989,123.83914 573.482318,129.2525 L607.267318,129.2525 Z M573.119818,140.055 C573.40982,143.873352 574.08648,147.172069 575.149818,149.95125 C576.213157,152.730431 577.61481,155.026241 579.354818,156.83875 C581.094827,158.651259 583.161057,160.004579 585.553568,160.89875 C587.94608,161.792921 590.592304,162.24 593.492318,162.24 C596.392333,162.24 598.893558,161.90167 600.996068,161.225 C603.098579,160.54833 604.935227,159.799171 606.506068,158.9775 C608.07691,158.155829 609.454396,157.40667 610.638568,156.73 C611.822741,156.05333 612.970646,155.715 614.082318,155.715 C615.580659,155.715 616.692315,156.270828 617.417318,157.3825 L622.564818,163.9075 C620.583142,166.227512 618.359831,168.172909 615.894818,169.74375 C613.429806,171.314591 610.856082,172.571245 608.173568,173.51375 C605.491055,174.456255 602.760249,175.120831 599.981068,175.5075 C597.201888,175.894169 594.507332,176.0875 591.897318,176.0875 C586.725626,176.0875 581.916507,175.229592 577.469818,173.51375 C573.02313,171.797908 569.156502,169.260433 565.869818,165.90125 C562.583135,162.542067 559.997328,158.385441 558.112318,153.43125 C556.227309,148.477059 555.284818,142.737533 555.284818,136.2125 C555.284818,131.137475 556.106477,126.364606 557.749818,121.89375 C559.39316,117.422894 561.749386,113.5321 564.818568,110.22125 C567.88775,106.9104 571.633546,104.288343 576.056068,102.355 C580.478591,100.421657 585.468957,99.455 591.027318,99.455 C595.715675,99.455 600.041465,100.204159 604.004818,101.7025 C607.968172,103.200841 611.375638,105.387902 614.227318,108.26375 C617.078999,111.139598 619.314394,114.667896 620.933568,118.84875 C622.552743,123.029604 623.362318,127.802473 623.362318,133.1675 C623.362318,135.87418 623.072321,137.698745 622.492318,138.64125 C621.912316,139.583755 620.80066,140.055 619.157318,140.055 L573.119818,140.055 Z M685.815282,115.115 C685.331946,115.888337 684.824451,116.432082 684.292782,116.74625 C683.761113,117.060418 683.084453,117.2175 682.262782,117.2175 C681.392778,117.2175 680.46237,116.975836 679.471532,116.4925 C678.480694,116.009164 677.332789,115.46542 676.027782,114.86125 C674.722776,114.25708 673.236541,113.713336 671.569032,113.23 C669.901524,112.746664 667.93196,112.505 665.660282,112.505 C662.131931,112.505 659.364876,113.254159 657.359032,114.7525 C655.353189,116.250841 654.350282,118.208321 654.350282,120.625 C654.350282,122.220008 654.86986,123.561245 655.909032,124.64875 C656.948204,125.736255 658.32569,126.690829 660.041532,127.5125 C661.757374,128.334171 663.702771,129.071247 665.877782,129.72375 C668.052793,130.376253 670.264021,131.089163 672.511532,131.8625 C674.759043,132.635837 676.970271,133.517912 679.145282,134.50875 C681.320293,135.499588 683.26569,136.756242 684.981532,138.27875 C686.697374,139.801258 688.07486,141.625823 689.114032,143.7525 C690.153204,145.879177 690.672782,148.440818 690.672782,151.4375 C690.672782,155.014185 690.032372,158.312902 688.751532,161.33375 C687.470692,164.354598 685.573628,166.964572 683.060282,169.16375 C680.546936,171.362928 677.441551,173.078744 673.744032,174.31125 C670.046514,175.543756 665.78114,176.16 660.947782,176.16 C658.386103,176.16 655.884878,175.930419 653.444032,175.47125 C651.003187,175.012081 648.659043,174.371671 646.411532,173.55 C644.164021,172.728329 642.085708,171.761672 640.176532,170.65 C638.267356,169.538328 636.587789,168.330007 635.137782,167.025 L639.270282,160.21 C639.801951,159.388329 640.430279,158.760002 641.155282,158.325 C641.880286,157.889998 642.79861,157.6725 643.910282,157.6725 C645.021954,157.6725 646.073194,157.986664 647.064032,158.615 C648.05487,159.243336 649.202776,159.919996 650.507782,160.645 C651.812789,161.370004 653.347357,162.046664 655.111532,162.675 C656.875708,163.303336 659.111102,163.6175 661.817782,163.6175 C663.944459,163.6175 665.769025,163.363753 667.291532,162.85625 C668.81404,162.348747 670.070694,161.684171 671.061532,160.8625 C672.05237,160.040829 672.777363,159.086255 673.236532,157.99875 C673.695701,156.911245 673.925282,155.787506 673.925282,154.6275 C673.925282,152.887491 673.405704,151.461672 672.366532,150.35 C671.32736,149.238328 669.949874,148.271671 668.234032,147.45 C666.51819,146.628329 664.56071,145.891253 662.361532,145.23875 C660.162355,144.586247 657.914877,143.873337 655.619032,143.1 C653.323187,142.326663 651.07571,141.420422 648.876532,140.38125 C646.677355,139.342078 644.719874,138.025008 643.004032,136.43 C641.28819,134.834992 639.910704,132.877512 638.871532,130.5575 C637.83236,128.237488 637.312782,125.434183 637.312782,122.1475 C637.312782,119.102485 637.916943,116.202514 639.125282,113.4475 C640.333622,110.692486 642.109854,108.287927 644.454032,106.23375 C646.798211,104.179573 649.722348,102.536256 653.226532,101.30375 C656.730716,100.071244 660.778593,99.455 665.370282,99.455 C670.493641,99.455 675.157761,100.300825 679.362782,101.9925 C683.567803,103.684175 687.071935,105.907486 689.875282,108.6625 L685.815282,115.115 Z M732.608246,176.16 C726.131547,176.16 721.165346,174.335435 717.709496,170.68625 C714.253645,167.037065 712.525746,161.998365 712.525746,155.57 L712.525746,114.0275 L704.913246,114.0275 C703.946574,114.0275 703.124916,113.713336 702.448246,113.085 C701.771576,112.456664 701.433246,111.514173 701.433246,110.2575 L701.433246,103.1525 L713.395746,101.195 L717.165746,80.895 C717.407414,79.9283285 717.866576,79.1791693 718.543246,78.6475 C719.219916,78.1158307 720.089907,77.85 721.153246,77.85 L730.433246,77.85 L730.433246,101.2675 L750.298246,101.2675 L750.298246,114.0275 L730.433246,114.0275 L730.433246,154.3375 C730.433246,156.657512 731.001157,158.469993 732.136996,159.775 C733.272835,161.080007 734.831569,161.7325 736.813246,161.7325 C737.924918,161.7325 738.855325,161.599585 739.604496,161.33375 C740.353666,161.067915 741.00616,160.790001 741.561996,160.5 C742.117832,160.209999 742.613244,159.932085 743.048246,159.66625 C743.483248,159.400415 743.918244,159.2675 744.353246,159.2675 C744.884915,159.2675 745.319911,159.400415 745.658246,159.66625 C745.996581,159.932085 746.359077,160.330831 746.745746,160.8625 L752.110746,169.5625 C749.500733,171.737511 746.504096,173.380828 743.120746,174.4925 C739.737396,175.604172 736.233264,176.16 732.608246,176.16 Z M804.70371,143.245 C799.532017,143.486668 795.182061,143.933747 791.65371,144.58625 C788.125359,145.238753 785.297887,146.072495 783.17121,147.0875 C781.044532,148.102505 779.522047,149.28666 778.60371,150.64 C777.685372,151.99334 777.22621,153.467492 777.22621,155.0625 C777.22621,158.204182 778.156617,160.45166 780.01746,161.805 C781.878302,163.15834 784.307028,163.835 787.30371,163.835 C790.977061,163.835 794.154946,163.170423 796.83746,161.84125 C799.519973,160.512077 802.14203,158.49418 804.70371,155.7875 L804.70371,143.245 Z M763.66871,110.9825 C772.223752,103.152461 782.518649,99.2375 794.55371,99.2375 C798.903731,99.2375 802.794526,99.9504095 806.22621,101.37625 C809.657893,102.80209 812.557864,104.783737 814.92621,107.32125 C817.294555,109.858763 819.094953,112.891649 820.32746,116.42 C821.559966,119.948351 822.17621,123.814979 822.17621,128.02 L822.17621,175 L814.05621,175 C812.364534,175 811.059547,174.746253 810.14121,174.23875 C809.222872,173.731247 808.497879,172.704174 807.96621,171.1575 L806.37121,165.7925 C804.4862,167.484175 802.649552,168.97041 800.86121,170.25125 C799.072867,171.53209 797.212053,172.607496 795.27871,173.4775 C793.345367,174.347504 791.279137,175.012081 789.07996,175.47125 C786.880782,175.930419 784.452056,176.16 781.79371,176.16 C778.652027,176.16 775.752056,175.737088 773.09371,174.89125 C770.435363,174.045412 768.139553,172.776675 766.20621,171.085 C764.272867,169.393325 762.774548,167.290846 761.71121,164.7775 C760.647871,162.264154 760.11621,159.340017 760.11621,156.005 C760.11621,154.119991 760.430373,152.247093 761.05871,150.38625 C761.687046,148.525407 762.714119,146.749175 764.13996,145.0575 C765.5658,143.365825 767.414532,141.770841 769.68621,140.2725 C771.957888,138.774159 774.74911,137.469172 778.05996,136.3575 C781.370809,135.245828 785.225354,134.339587 789.62371,133.63875 C794.022065,132.937913 799.048681,132.515001 804.70371,132.37 L804.70371,128.02 C804.70371,123.041642 803.640387,119.356262 801.51371,116.96375 C799.387032,114.571238 796.317896,113.375 792.30621,113.375 C789.406195,113.375 787.001636,113.71333 785.09246,114.39 C783.183283,115.06667 781.503717,115.827912 780.05371,116.67375 C778.603702,117.519588 777.286632,118.28083 776.10246,118.9575 C774.918287,119.63417 773.601217,119.9725 772.15121,119.9725 C770.894537,119.9725 769.831214,119.646253 768.96121,118.99375 C768.091205,118.341247 767.390379,117.580004 766.85871,116.71 L763.66871,110.9825 Z M866.431673,176.16 C859.954974,176.16 854.988774,174.335435 851.532923,170.68625 C848.077073,167.037065 846.349173,161.998365 846.349173,155.57 L846.349173,114.0275 L838.736673,114.0275 C837.770002,114.0275 836.948343,113.713336 836.271673,113.085 C835.595003,112.456664 835.256673,111.514173 835.256673,110.2575 L835.256673,103.1525 L847.219173,101.195 L850.989173,80.895 C851.230841,79.9283285 851.690003,79.1791693 852.366673,78.6475 C853.043343,78.1158307 853.913335,77.85 854.976673,77.85 L864.256673,77.85 L864.256673,101.2675 L884.121673,101.2675 L884.121673,114.0275 L864.256673,114.0275 L864.256673,154.3375 C864.256673,156.657512 864.824584,158.469993 865.960423,159.775 C867.096262,161.080007 868.654997,161.7325 870.636673,161.7325 C871.748345,161.7325 872.678753,161.599585 873.427923,161.33375 C874.177094,161.067915 874.829587,160.790001 875.385423,160.5 C875.941259,160.209999 876.436671,159.932085 876.871673,159.66625 C877.306675,159.400415 877.741671,159.2675 878.176673,159.2675 C878.708343,159.2675 879.143338,159.400415 879.481673,159.66625 C879.820008,159.932085 880.182505,160.330831 880.569173,160.8625 L885.934173,169.5625 C883.32416,171.737511 880.327524,173.380828 876.944173,174.4925 C873.560823,175.604172 870.056691,176.16 866.431673,176.16 Z M946.574637,129.2525 C946.574637,126.932488 946.24839,124.745427 945.595887,122.69125 C944.943384,120.637073 943.964643,118.836674 942.659637,117.29 C941.35463,115.743326 939.69923,114.522921 937.693387,113.62875 C935.687544,112.734579 933.355484,112.2875 930.697137,112.2875 C925.525444,112.2875 921.453402,113.761652 918.480887,116.71 C915.508372,119.658348 913.611308,123.83914 912.789637,129.2525 L946.574637,129.2525 Z M912.427137,140.055 C912.717138,143.873352 913.393798,147.172069 914.457137,149.95125 C915.520476,152.730431 916.922128,155.026241 918.662137,156.83875 C920.402146,158.651259 922.468375,160.004579 924.860887,160.89875 C927.253399,161.792921 929.899622,162.24 932.799637,162.24 C935.699651,162.24 938.200876,161.90167 940.303387,161.225 C942.405897,160.54833 944.242546,159.799171 945.813387,158.9775 C947.384228,158.155829 948.761714,157.40667 949.945887,156.73 C951.13006,156.05333 952.277965,155.715 953.389637,155.715 C954.887978,155.715 955.999633,156.270828 956.724637,157.3825 L961.872137,163.9075 C959.89046,166.227512 957.667149,168.172909 955.202137,169.74375 C952.737125,171.314591 950.1634,172.571245 947.480887,173.51375 C944.798374,174.456255 942.067568,175.120831 939.288387,175.5075 C936.509206,175.894169 933.81465,176.0875 931.204637,176.0875 C926.032944,176.0875 921.223826,175.229592 916.777137,173.51375 C912.330448,171.797908 908.46382,169.260433 905.177137,165.90125 C901.890454,162.542067 899.304646,158.385441 897.419637,153.43125 C895.534628,148.477059 894.592137,142.737533 894.592137,136.2125 C894.592137,131.137475 895.413795,126.364606 897.057137,121.89375 C898.700479,117.422894 901.056705,113.5321 904.125887,110.22125 C907.195069,106.9104 910.940865,104.288343 915.363387,102.355 C919.785909,100.421657 924.776276,99.455 930.334637,99.455 C935.022994,99.455 939.348784,100.204159 943.312137,101.7025 C947.27549,103.200841 950.682956,105.387902 953.534637,108.26375 C956.386318,111.139598 958.621712,114.667896 960.240887,118.84875 C961.860062,123.029604 962.669637,127.802473 962.669637,133.1675 C962.669637,135.87418 962.37964,137.698745 961.799637,138.64125 C961.219634,139.583755 960.107979,140.055 958.464637,140.055 L912.427137,140.055 Z" id="bits.estate-copy" fill="#FFFFFF"></path>
            </g>
        </g>
    </g>
</svg>