<?xml version="1.0" encoding="UTF-8"?>
<svg width="207px" height="200px" viewBox="0 0 207 200" version="1.1" xmlns="http://www.w3.org/2000/svg" xmlns:xlink="http://www.w3.org/1999/xlink">
    <!-- Generator: Sketch 46.2 (44496) - http://www.bohemiancoding.com/sketch -->
    <title>Group 8</title>
    <desc>Created with Sketch.</desc>
    <defs>
        <polygon id="path-1" points="5.3819 6.45366667 5.3819 0.107666667 0.38726 0.107666667 0.38726 6.45366667 5.3819 6.45366667"></polygon>
        <polygon id="path-3" points="6.31461 6.33333333 0.01461 6.33333333 0.01461 0.122866667 6.31461 0.122866667 6.31461 6.33333333"></polygon>
        <polygon id="path-5" points="5.3819 7.66537474 5.3819 0.949533333 0.02501 0.949533333 0.02501 7.66537474 5.3819 7.66537474"></polygon>
        <polygon id="path-7" points="89.9589166 0.759913059 89.9589166 92.9236437 0.184292958 92.9236437 0.184292958 0.759913059 89.9589166 0.759913059"></polygon>
        <polygon id="path-9" points="2.68631609e-15 92.1025984 2.68631609e-15 0.571183836 91.2902743 0.571183836 91.2902743 92.1025984 0 92.1025984"></polygon>
        <polygon id="path-11" points="0 66.1338 0 0.8568 72.8622 0.8568 72.8622 66.1338 1.51410866e-15 66.1338"></polygon>
        <polygon id="path-13" points="5.864 9.5701 5.864 0.5701 0.0581 0.5701 0.0581 9.5701 5.864 9.5701"></polygon>
        <polygon id="path-15" points="7.864 9.8261 7.864 0.8261 0.4147 0.8261 0.4147 9.8261 7.864 9.8261"></polygon>
        <polygon id="path-17" points="0.0915 5 9.0915 5 9.0915 0.9239 0.0915 0.9239"></polygon>
        <polygon id="path-19" points="4.864 9.9226 4.864 0.9226 0.553 0.9226 0.553 9.9226 4.864 9.9226"></polygon>
        <polygon id="path-21" points="6.864 9.1786 6.864 0.1786 0.9087 0.1786 0.9087 9.1786 6.864 9.1786"></polygon>
        <polygon id="path-23" points="7.864 9.4346 7.864 0.4346 0.2608 0.4346 0.2608 9.4346 7.864 9.4346"></polygon>
        <polygon id="path-25" points="0.2334 6 9.2334 6 9.2334 0.0213 0.2334 0.0213 0.2334 6"></polygon>
    </defs>
    <g id="Design" stroke="none" stroke-width="1" fill="none" fill-rule="evenodd">
        <g id="Registration---Step-3" transform="translate(-486.000000, -238.000000)">
            <g id="Add-company" transform="translate(409.000000, 192.000000)">
                <g id="Group-8" transform="translate(77.000000, 40.000000)">
                    <path d="M101,184 C117.250437,184 132.325115,178.965978 144.749675,170.372291 C164.839067,156.477077 178,133.275489 178,107 C178,64.4740743 143.525926,30 101,30 C58.4740743,30 24,64.4740743 24,107 C24,149.525926 58.4740743,184 101,184 Z" id="Oval-5" fill-opacity="0.150000006" fill="#D8D8D8"></path>
                    <g id="Page-1" transform="translate(43.340506, 67.465375) rotate(-18.000000) translate(-43.340506, -67.465375) translate(14.340506, 16.465375)">
                        <polygon id="Fill-1" fill="#FAE6BE" points="26.27982 17.9697667 21.06342 19.9964333 47.86992 89.8277667 53.09262 87.8011"></polygon>
                        <polygon id="Fill-2" fill="#FAE6BE" points="47.86614 89.8258667 50.10894 95.6652 55.33164 93.6385333 53.09514 87.7992"></polygon>
                        <g id="Group-50" transform="translate(0.000000, 0.026133)">
                            <path d="M21.17934,10.5558 C21.02814,10.7521333 20.84544,10.9294667 20.61864,11.0118 C20.40444,11.1004667 20.16504,11.0878 19.92564,11.0498 L21.05964,19.9671333 L23.68044,18.9538 L26.28234,17.9468 L21.17934,10.5558 Z" id="Fill-3" fill="#FAE6BE"></path>
                            <path d="M21.17934,10.5558 L19.56654,8.22513333 L19.92564,11.0498 C20.16504,11.0878 20.40444,11.1004667 20.61864,11.0118 C20.84544,10.9294667 21.02814,10.7521333 21.17934,10.5558" id="Fill-5" fill="#415064"></path>
                            <path d="M26.27982,17.9468 C25.56162,18.2254667 25.20252,19.0361333 25.47972,19.7644667 C25.20252,19.0361333 24.38982,18.6751333 23.67162,18.9601333 C22.95342,19.2388 22.59432,20.0558 22.87152,20.7778 C22.59432,20.0558 21.78162,19.6884667 21.06342,19.9671333 L47.86992,89.7984667 L53.09262,87.7718 L26.27982,17.9468 Z" id="Fill-7" fill="#FFA700"></path>
                            <polygon id="Fill-9" fill="#F5F5F5" points="53.09136 87.7743333 47.86866 89.801 50.11146 95.6403333 55.32786 93.6136667"></polygon>
                            <path d="M22.87152,20.7759 C22.59432,20.0539 21.78162,19.6929 21.06342,19.9715667 L47.86992,89.7965667 L49.18032,89.2962333 L22.87152,20.7759 Z" id="Fill-11" fill="#FFFFFF"></path>
                            <polygon id="Fill-13" fill="#FFFFFF" points="49.17843 89.2956 47.86803 89.8022667 50.11083 95.6416 51.41493 95.1349333"></polygon>
                            <path d="M26.27982,17.9468 C25.56162,18.2254667 25.20252,19.0361333 25.47972,19.7644667 L51.78852,88.2784667 L53.09262,87.7718 L26.27982,17.9468 Z" id="Fill-15" fill="#000000"></path>
                            <g id="Group-19" transform="translate(51.400000, 87.666667)">
                                <mask id="mask-2" fill="white">
                                    <use xlink:href="#path-1"></use>
                                </mask>
                                <g id="Clip-18"></g>
                                <polygon id="Fill-17" fill="#000000" mask="url(#mask-2)" points="1.69136 0.107666667 0.38726 0.614333333 2.63006 6.45366667 3.92786 5.947"></polygon>
                            </g>
                            <g id="Group-22" transform="translate(50.100000, 94.000000)">
                                <mask id="mask-4" fill="white">
                                    <use xlink:href="#path-3"></use>
                                </mask>
                                <g id="Clip-21"></g>
                                <path d="M3.92691,0.122866667 L1.31871,1.1362 L0.01461,1.64286667 L1.32501,5.06286667 C5.75391,3.34653333 3.92691,0.122866667 3.92691,0.122866667" id="Fill-20" fill="#F06024" mask="url(#mask-4)"></path>
                            </g>
                            <g id="Group-25" transform="translate(51.400000, 92.666667)">
                                <mask id="mask-6" fill="white">
                                    <use xlink:href="#path-5"></use>
                                </mask>
                                <g id="Clip-24"></g>
                                <path d="M2.62691,1.4562 C2.62691,1.4562 4.45391,4.67986667 0.02501,6.3962 C0.41561,7.41586667 1.56221,7.92886667 2.57651,7.52986667 L4.11371,6.93453333 C5.13431,6.54186667 5.64461,5.39553333 5.24771,4.36953333 L3.93101,0.949533333 L2.62691,1.4562 Z" id="Fill-23" fill="#D4481C" mask="url(#mask-6)"></path>
                            </g>
                            <polygon id="Fill-26" fill="#FAE6BE" points="5.44761 10.8496667 0.00441 12.148 17.14671 84.9876667 22.59621 83.6893333"></polygon>
                            <polygon id="Fill-28" fill="#FAE6BE" points="22.59432 83.6887 17.15112 84.9870333 18.58122 91.0797 24.03072 89.7813667"></polygon>
                            <path d="M1.38726,2.83356667 C1.20456,3.0109 1.00296,3.15656667 0.76986,3.21356667 C0.54306,3.26423333 0.30996,3.22623333 0.07686,3.15023333 L0.00126,12.1435667 L2.74176,11.4912333 L5.45076,10.8515667 L1.38726,2.83356667 Z" id="Fill-30" fill="#FAE6BE"></path>
                            <path d="M1.38726,2.83356667 L0.10836,0.306566667 L0.07686,3.15023333 C0.30996,3.22623333 0.54306,3.26423333 0.76986,3.21356667 C1.00296,3.15656667 1.20456,3.0109 1.38726,2.83356667" id="Fill-32" fill="#415064"></path>
                            <path d="M5.44761,10.8522 C4.69161,11.0295333 4.23171,11.7832 4.40811,12.5432 C4.23171,11.7832 3.47571,11.3208667 2.71971,11.4982 C1.97001,11.6755333 1.50381,12.4355333 1.68021,13.1892 C1.50381,12.4355333 0.75411,11.9668667 0.00441,12.1442 L17.14671,84.9838667 L22.59621,83.6855333 L5.44761,10.8522 Z" id="Fill-34" fill="#FFA700"></path>
                            <polygon id="Fill-36" fill="#F5F5F5" points="22.59432 83.6887 17.15112 84.9870333 18.58122 91.0797 24.03072 89.7813667"></polygon>
                            <path d="M1.68273,13.1904667 C1.50633,12.4368 0.75663,11.9681333 0.00063,12.1454667 L17.14923,84.9851333 L18.51003,84.6621333 L1.68273,13.1904667 Z" id="Fill-38" fill="#FFFFFF"></path>
                            <polygon id="Fill-40" fill="#FFFFFF" points="18.5094 84.6602333 17.1486 84.9832333 18.585 91.0759 19.9458 90.7529"></polygon>
                            <path d="M5.44761,10.8522 C4.69791,11.0295333 4.23171,11.7832 4.40811,12.5432 L21.23541,84.0148667 L22.59621,83.6855333 L5.44761,10.8522 Z" id="Fill-42" fill="#000000"></path>
                            <polygon id="Fill-44" fill="#000000" points="22.59432 83.6887 21.23352 84.0117 22.66992 90.1043667 24.03072 89.7813667"></polygon>
                            <path d="M22.66803,90.1056333 L19.94013,90.7579667 L18.58563,91.0746333 L19.42353,94.6466333 C24.04143,93.5446333 22.66803,90.1056333 22.66803,90.1056333" id="Fill-46" fill="#F06024"></path>
                            <path d="M22.66803,90.1056333 C22.66803,90.1056333 24.04143,93.5446333 19.42353,94.6466333 C19.66923,95.7169667 20.73393,96.3693 21.79233,96.1223 L23.40513,95.7359667 C24.46353,95.4889667 25.11873,94.4186333 24.87303,93.3546333 L24.02883,89.7826333 L22.66803,90.1056333 Z" id="Fill-48" fill="#D4481C"></path>
                        </g>
                    </g>
                    <g id="Page-1" transform="translate(68.000000, 109.000000)">
                        <g id="Group-3" transform="translate(3.971831, 3.504437)">
                            <mask id="mask-8" fill="white">
                                <use xlink:href="#path-7"></use>
                            </mask>
                            <g id="Clip-2"></g>
                            <path d="M89.9647827,45.7719879 C89.9647827,20.9131468 69.8660958,0.759913059 45.0745378,0.759913059 C20.2756472,0.759913059 0.184292958,20.9131468 0.184292958,45.7719879 C0.184292958,46.1396135 0.286949512,46.477829 0.294282124,46.8454546 C0.286949512,47.2057277 0.184292958,47.5439432 0.184292958,47.9115688 C0.184292958,72.7704099 20.2756472,92.9236437 45.0745378,92.9236437 C69.8660958,92.9236437 89.9647827,72.7704099 89.9647827,47.9115688 C89.9647827,47.5439432 89.8621261,47.2057277 89.8474609,46.8454546 C89.8621261,46.477829 89.9647827,46.1396135 89.9647827,45.7719879" id="Fill-1" fill="#C0C0C0" mask="url(#mask-8)"></path>
                        </g>
                        <g id="Group-6" transform="translate(0.000000, 0.138227)">
                            <mask id="mask-10" fill="white">
                                <use xlink:href="#path-9"></use>
                            </mask>
                            <g id="Clip-5"></g>
                            <path d="M45.6447705,0.571183836 C20.4352537,0.571183836 -0.000733261105,21.0626332 -0.000733261105,46.3405674 C-0.000733261105,71.6185016 20.4352537,92.1025984 45.6447705,92.1025984 C70.8542873,92.1025984 91.2902743,71.6185016 91.2902743,46.3405674 C91.2902743,21.0626332 70.8542873,0.571183836 45.6447705,0.571183836" id="Fill-4" fill="#FFFFFF" mask="url(#mask-10)"></path>
                        </g>
                        <path d="M45.6447705,1.52848082 C20.84588,1.52848082 0.754525677,21.6817146 0.754525677,46.5405557 C0.754525677,71.3993968 20.84588,91.5526306 45.6447705,91.5526306 C70.4363285,91.5526306 90.5350154,71.3993968 90.5350154,46.5405557 C90.5350154,21.6817146 70.4363285,1.52848082 45.6447705,1.52848082" id="Fill-7" fill="#F9F9F9"></path>
                        <path d="M50.0267389,14.7144748 C67.4343575,14.7144748 82.356221,24.7506529 89.8061538,39.2718629 C86.315831,17.8907597 67.9476403,1.53142183 45.6418375,1.53142183 C20.8502795,1.53142183 0.751592633,21.6773031 0.751592633,46.5434967 C0.751592633,53.9474757 2.70939978,60.8294264 5.86975515,66.990831 C5.48112676,64.6159698 5.13649404,62.2116985 5.13649404,59.7265497 C5.13649404,34.8677086 25.2351809,14.7144748 50.0267389,14.7144748" id="Fill-9" fill="#F7F7F7"></path>
                        <path d="M80.2884247,69.0362996 L72.6625092,62.6028521 C79.6358223,50.8461864 77.3920433,35.45738 66.6204377,26.3623234 C54.6389512,16.2452677 36.7547129,17.7819426 26.6650401,29.8032987 C16.5753673,41.8099499 18.1152156,59.7500777 30.0893694,69.8671334 C40.8609751,78.9695426 56.3621148,78.5578019 66.7230943,69.6686156 L74.3490098,76.1020631 C76.3068169,77.7490257 79.2105309,77.4990403 80.8457031,75.5506247 C82.488208,73.5948567 82.2388992,70.6832622 80.2884247,69.0362996" id="Fill-11" fill="#E0E0E0"></path>
                        <path d="M45.6447705,23.0831033 C33.0400121,23.0831033 22.8330176,33.3251517 22.8330176,45.9567663 C22.8330176,58.5883809 33.0400121,68.8304293 45.6447705,68.8304293 C58.2421963,68.8304293 68.4491909,58.5883809 68.4491909,45.9567663 C68.4491909,33.3251517 58.2421963,23.0831033 45.6447705,23.0831033" id="Fill-13" fill="#42210B"></path>
                        <g id="Group-83" transform="translate(39.310943, 20.866994)">
                            <path d="M5.97526327,4.72919735 C3.72415168,4.72919735 1.88366631,6.57467772 1.88366631,8.83189872 C1.88366631,11.0817672 3.72415168,12.9272476 5.97526327,12.9272476 C8.22637486,12.9272476 10.0668602,11.0817672 10.0668602,8.83189872 C10.0668602,6.57467772 8.22637486,4.72919735 5.97526327,4.72919735" id="Fill-15" fill="#42210B"></path>
                            <path d="M5.97526327,5.51518082 C4.14944312,5.51518082 2.66825569,7.00038813 2.66825569,8.83116347 C2.66825569,10.6619388 4.14944312,12.1397936 5.97526327,12.1397936 C7.79375081,12.1397936 9.28227086,10.6619388 9.28227086,8.83116347 C9.28227086,7.00038813 7.79375081,5.51518082 5.97526327,5.51518082 M5.97526327,13.7132311 C3.28419502,13.7132311 1.09907692,11.5221826 1.09907692,8.83116347 C1.09907692,6.14014429 3.28419502,3.94174338 5.97526327,3.94174338 C8.65899892,3.94174338 10.8514496,6.14014429 10.8514496,8.83116347 C10.8514496,11.5221826 8.65899892,13.7132311 5.97526327,13.7132311" id="Fill-17" fill="#BFAFA1"></path>
                            <path d="M19.2656208,10.5347404 C17.4178028,10.5347404 15.8999523,12.0567102 15.8999523,13.9095431 C15.8999523,15.7697285 17.4178028,17.2843458 19.2656208,17.2843458 C21.1207714,17.2843458 22.6312893,15.7697285 22.6312893,13.9095431 C22.6312893,12.0567102 21.1207714,10.5347404 19.2656208,10.5347404" id="Fill-19" fill="#42210B"></path>
                            <path d="M19.2656208,11.3207238 C17.8430943,11.3207238 16.6845417,12.4824206 16.6845417,13.9088079 C16.6845417,15.3351951 17.8430943,16.4968919 19.2656208,16.4968919 C20.6881473,16.4968919 21.8540325,15.3351951 21.8540325,13.9088079 C21.8540325,12.4824206 20.6881473,11.3207238 19.2656208,11.3207238 M19.2656208,18.0703293 C16.9778462,18.0703293 15.1226956,16.2027914 15.1226956,13.9088079 C15.1226956,11.6221768 16.9778462,9.74728639 19.2656208,9.74728639 C21.5533954,9.74728639 23.4158787,11.6221768 23.4158787,13.9088079 C23.4158787,16.2027914 21.5533954,18.0703293 19.2656208,18.0703293" id="Fill-21" fill="#BFAFA1"></path>
                            <path d="M9.12608624,14.9609522 C7.7695532,14.9609522 6.66966154,16.0638289 6.66966154,17.4166911 C6.66966154,18.7769057 7.7695532,19.8797824 9.12608624,19.8797824 C10.4826193,19.8797824 11.5825109,18.7769057 11.5825109,17.4166911 C11.5825109,16.0638289 10.4826193,14.9609522 9.12608624,14.9609522" id="Fill-23" fill="#42210B"></path>
                            <path d="M9.13341885,15.7439947 C8.20217725,15.7439947 7.45425092,16.4939509 7.45425092,17.4277198 C7.45425092,18.3467837 8.20217725,19.0967399 9.13341885,19.0967399 C10.0573278,19.0967399 10.8052542,18.3467837 10.8052542,17.4277198 C10.8052542,16.5086559 10.03533,15.7439947 9.13341885,15.7439947 M9.13341885,20.6701774 C7.33692914,20.6701774 5.88507216,19.2070276 5.88507216,17.4277198 C5.88507216,15.633707 7.33692914,14.1705573 9.13341885,14.1705573 C10.9152433,14.1705573 12.3671003,15.633707 12.3671003,17.4277198 C12.3671003,19.2070276 10.9152433,20.6701774 9.13341885,20.6701774" id="Fill-25" fill="#BFAFA1"></path>
                            <path d="M13.0358345,18.6085332 C12.0092689,18.6085332 11.1733512,19.4467195 11.1733512,20.4687185 C11.1733512,21.4980701 12.0092689,22.3362564 13.0358345,22.3362564 C14.0624,22.3362564 14.890985,21.4980701 14.890985,20.4687185 C14.890985,19.4467195 14.0624,18.6085332 13.0358345,18.6085332" id="Fill-27" fill="#42210B"></path>
                            <path d="M13.0292351,19.3945166 C12.4426262,19.3945166 11.9586739,19.8724299 11.9586739,20.4679833 C11.9586739,21.0708892 12.4426262,21.5488025 13.0292351,21.5488025 C13.6305092,21.5488025 14.1071289,21.0708892 14.1071289,20.4679833 C14.1071289,19.8724299 13.6305092,19.3945166 13.0292351,19.3945166 M13.0292351,23.1222399 C11.5773781,23.1222399 10.3968277,21.9384856 10.3968277,20.4679833 C10.3968277,19.012186 11.5773781,17.8210792 13.0292351,17.8210792 C14.4884247,17.8210792 15.6763077,19.012186 15.6763077,20.4679833 C15.6763077,21.9384856 14.4884247,23.1222399 13.0292351,23.1222399" id="Fill-29" fill="#BFAFA1"></path>
                            <path d="M5.97526327,2.08302849 C5.35199133,2.08302849 4.85337378,2.59035178 4.85337378,3.20796274 C4.85337378,3.8255737 5.35199133,4.33289699 5.97526327,4.33289699 C6.5912026,4.33289699 7.09715276,3.8255737 7.09715276,3.20796274 C7.09715276,2.59035178 6.5912026,2.08302849 5.97526327,2.08302849" id="Fill-31" fill="#42210B"></path>
                            <path d="M5.97526327,2.87342347 C5.791948,2.87342347 5.63796316,3.0204737 5.63796316,3.20428648 C5.63796316,3.58661708 6.31256338,3.58661708 6.31256338,3.20428648 C6.31256338,3.0204737 6.15124594,2.87342347 5.97526327,2.87342347 M5.97526327,5.12329196 C4.91936728,5.12329196 4.0687844,4.26304813 4.0687844,3.20428648 C4.0687844,2.16022986 4.91936728,1.29998603 5.97526327,1.29998603 C7.02382665,1.29998603 7.88174215,2.16022986 7.88174215,3.20428648 C7.88174215,4.26304813 7.02382665,5.12329196 5.97526327,5.12329196" id="Fill-33" fill="#BFAFA1"></path>
                            <path d="M2.48127411,12.3508107 C1.86533478,12.3508107 1.35938462,12.8507815 1.35938462,13.4757449 C1.35938462,14.0933559 1.86533478,14.6006792 2.48127411,14.6006792 C3.09721343,14.6006792 3.6031636,14.0933559 3.6031636,13.4757449 C3.6031636,12.8507815 3.09721343,12.3508107 2.48127411,12.3508107" id="Fill-35" fill="#42210B"></path>
                            <path d="M2.48127411,13.1338532 C2.29795883,13.1338532 2.143974,13.2882559 2.143974,13.4794212 C2.143974,13.8543993 2.81857421,13.8543993 2.81857421,13.4794212 C2.81857421,13.2882559 2.66458938,13.1338532 2.48127411,13.1338532 M2.48127411,15.3837216 C1.43271073,15.3837216 0.574795233,14.5234778 0.574795233,13.4794212 C0.574795233,12.4206595 1.43271073,11.5604157 2.48127411,11.5604157 C3.52983749,11.5604157 4.38775298,12.4206595 4.38775298,13.4794212 C4.38775298,14.5234778 3.52983749,15.3837216 2.48127411,15.3837216" id="Fill-37" fill="#BFAFA1"></path>
                            <path d="M8.60327107,16.0880922 C8.26597096,16.0880922 7.98733174,16.3601352 7.98733174,16.6983507 C7.98733174,17.0292137 8.26597096,17.3086091 8.60327107,17.3086091 C8.93323857,17.3086091 9.21187779,17.0292137 9.21187779,16.6983507 C9.21187779,16.3601352 8.93323857,16.0880922 8.60327107,16.0880922" id="Fill-39" fill="#E3DBD3"></path>
                            <path d="M18.5785551,12.243464 C17.9992789,12.243464 17.5226592,12.7140247 17.5226592,13.3022257 C17.5226592,13.8830741 17.9992789,14.3609873 18.5785551,14.3609873 C19.165164,14.3609873 19.6417837,13.8830741 19.6417837,13.3022257 C19.6417837,12.7140247 19.165164,12.243464 18.5785551,12.243464" id="Fill-41" fill="#E3DBD3"></path>
                            <path d="M5.22367064,6.33425059 C4.5344052,6.33425059 3.97712676,6.90039397 3.97712676,7.58417753 C3.97712676,8.2679611 4.5344052,8.82675196 5.22367064,8.82675196 C5.90560347,8.82675196 6.47021452,8.2679611 6.47021452,7.58417753 C6.47021452,6.90039397 5.90560347,6.33425059 5.22367064,6.33425059" id="Fill-43" fill="#E3DBD3"></path>
                            <path d="M12.9361109,5.79898776 C12.5034869,5.79898776 12.1515216,6.15190831 12.1515216,6.58570648 C12.1515216,7.01950466 12.5034869,7.36507269 12.9361109,7.36507269 C13.368735,7.36507269 13.7133677,7.01950466 13.7133677,6.58570648 C13.7133677,6.15190831 13.368735,5.79898776 12.9361109,5.79898776" id="Fill-45" fill="#E3DBD3"></path>
                            <path d="M9.49858288,1.16102356 C8.37669339,1.16102356 7.46011701,2.08008749 7.46011701,3.21237425 C7.46011701,4.33730849 8.37669339,5.26372493 9.49858288,5.26372493 C10.6204724,5.26372493 11.5370488,4.33730849 11.5370488,3.21237425 C11.5370488,2.08008749 10.6204724,1.16102356 9.49858288,1.16102356" id="Fill-47" fill="#42210B"></path>
                            <path d="M9.49858288,1.94700703 C8.80198483,1.94700703 8.23737378,2.51315041 8.23737378,3.20428648 C8.23737378,3.90277507 8.81665005,4.47627096 9.49858288,4.47627096 C10.1951809,4.47627096 10.759792,3.91012758 10.759792,3.20428648 C10.759792,2.51315041 10.1951809,1.94700703 9.49858288,1.94700703 M9.49858288,6.0497084 C7.93673673,6.0497084 6.66819502,4.77037142 6.66819502,3.20428648 C6.66819502,1.64555406 7.93673673,0.373569589 9.49858288,0.373569589 C11.0530964,0.373569589 12.3289707,1.64555406 12.3289707,3.20428648 C12.3289707,4.77037142 11.0530964,6.0497084 9.49858288,6.0497084" id="Fill-49" fill="#BFAFA1"></path>
                            <path d="M12.5709469,9.73037562 C11.2070813,9.73037562 10.099857,10.8479574 10.099857,12.208172 C10.099857,13.5757391 11.2070813,14.6933208 12.5709469,14.6933208 C13.9348126,14.6933208 15.0493694,13.5757391 15.0493694,12.208172 C15.0493694,10.8479574 13.9348126,9.73037562 12.5709469,9.73037562" id="Fill-51" fill="#42210B"></path>
                            <path d="M12.5709469,10.5163591 C11.6323727,10.5163591 10.8844464,11.2810203 10.8844464,12.2074367 C10.8844464,13.1412057 11.6323727,13.9058668 12.5709469,13.9058668 C13.5095211,13.9058668 14.2574475,13.1412057 14.2574475,12.2074367 C14.2574475,11.2810203 13.5095211,10.5163591 12.5709469,10.5163591 M12.5709469,15.4793043 C10.7817898,15.4793043 9.31526761,14.0161545 9.31526761,12.2074367 C9.31526761,10.4060714 10.7817898,8.94292164 12.5709469,8.94292164 C14.3674366,8.94292164 15.8266262,10.4060714 15.8266262,12.2074367 C15.8266262,14.0161545 14.3674366,15.4793043 12.5709469,15.4793043" id="Fill-53" fill="#BFAFA1"></path>
                            <path d="M19.2656208,5.26078393 C18.0117443,5.26078393 16.9851788,6.29013553 16.9851788,7.54006247 C16.9851788,8.79734192 18.0117443,9.82669352 19.2656208,9.82669352 C20.5194973,9.82669352 21.5460628,8.79734192 21.5460628,7.54006247 C21.5460628,6.29013553 20.5194973,5.26078393 19.2656208,5.26078393" id="Fill-55" fill="#42210B"></path>
                            <path d="M19.2656208,6.0467674 C18.4370358,6.0467674 17.7771008,6.71584594 17.7771008,7.54667973 C17.7771008,8.370161 18.4370358,9.03923954 19.2656208,9.03923954 C20.0868732,9.03923954 20.7614735,8.370161 20.7614735,7.54667973 C20.7614735,6.71584594 20.0868732,6.0467674 19.2656208,6.0467674 M19.2656208,10.612677 C17.5864529,10.612677 16.207922,9.23775735 16.207922,7.54667973 C16.207922,5.8556021 17.5864529,4.47332995 19.2656208,4.47332995 C20.9521213,4.47332995 22.3306522,5.8556021 22.3306522,7.54667973 C22.3306522,9.23775735 20.9521213,10.612677 19.2656208,10.612677" id="Fill-57" fill="#BFAFA1"></path>
                            <path d="M13.7375653,14.638177 C12.8136563,14.638177 12.0583974,15.4028382 12.0583974,16.3292546 C12.0583974,17.2556711 12.8136563,18.0129797 13.7375653,18.0129797 C14.6688069,18.0129797 15.4240659,17.2556711 15.4240659,16.3292546 C15.4240659,15.4028382 14.6688069,14.638177 13.7375653,14.638177" id="Fill-59" fill="#42210B"></path>
                            <path d="M13.7448979,15.4204842 C13.2609456,15.4204842 12.8356542,15.8395774 12.8356542,16.3248431 C12.8356542,16.8101089 13.2609456,17.229202 13.7448979,17.229202 C14.2435155,17.229202 14.6394765,16.8248139 14.6394765,16.3248431 C14.6394765,15.8248723 14.2435155,15.4204842 13.7448979,15.4204842 M13.7448979,18.8026395 C12.3736997,18.8026395 11.2664754,17.6924102 11.2664754,16.3248431 C11.2664754,14.9646285 12.3736997,13.8470468 13.7448979,13.8470468 C15.101431,13.8470468 16.2086553,14.9646285 16.2086553,16.3248431 C16.2086553,17.6924102 15.101431,18.8026395 13.7448979,18.8026395" id="Fill-61" fill="#BFAFA1"></path>
                            <path d="M13.3943991,4.51744502 C12.0085356,4.51744502 10.8719809,5.65708429 10.8719809,7.04670895 C10.8719809,8.43633361 12.0085356,9.57597288 13.3943991,9.57597288 C14.7802626,9.57597288 15.9241499,8.43633361 15.9241499,7.04670895 C15.9241499,5.65708429 14.7802626,4.51744502 13.3943991,4.51744502" id="Fill-63" fill="#42210B"></path>
                            <path d="M13.4009985,5.30342849 C12.4404264,5.30342849 11.6558371,6.0827947 11.6558371,7.0459737 C11.6558371,8.00915269 12.4404264,8.7885189 13.4009985,8.7885189 C14.3542379,8.7885189 15.1388273,8.00915269 15.1388273,7.0459737 C15.1388273,6.0827947 14.3542379,5.30342849 13.4009985,5.30342849 M13.4009985,10.3619563 C11.5751783,10.3619563 10.0866583,8.87674904 10.0866583,7.0459737 C10.0866583,5.22255087 11.5751783,3.72999105 13.4009985,3.72999105 C15.219486,3.72999105 16.7080061,5.22255087 16.7080061,7.0459737 C16.7080061,8.87674904 15.219486,10.3619563 13.4009985,10.3619563" id="Fill-65" fill="#BFAFA1"></path>
                            <path d="M16.2658496,9.03409279 C15.6645755,9.03409279 15.1806232,9.52671105 15.1806232,10.129617 C15.1806232,10.7325229 15.6645755,11.2251412 16.2658496,11.2251412 C16.8671237,11.2251412 17.3584087,10.7325229 17.3584087,10.129617 C17.3584087,9.52671105 16.8671237,9.03409279 16.2658496,9.03409279" id="Fill-67" fill="#42210B"></path>
                            <path d="M16.272449,9.82007626 C16.0964663,9.82007626 15.9498141,9.96712648 15.9498141,10.1288817 C15.9498141,10.4670973 16.573086,10.4670973 16.573086,10.1288817 C16.573086,9.96712648 16.4264338,9.82007626 16.272449,9.82007626 M16.272449,12.0111247 C15.2238856,12.0111247 14.3806353,11.1729384 14.3806353,10.1288817 C14.3806353,9.09217763 15.2238856,8.24663881 16.272449,8.24663881 C17.2990145,8.24663881 18.1422648,9.09217763 18.1422648,10.1288817 C18.1422648,11.1729384 17.2990145,12.0111247 16.272449,12.0111247" id="Fill-69" fill="#BFAFA1"></path>
                            <path d="M16.7241378,2.10140977 C15.8588897,2.10140977 15.1476264,2.81460338 15.1476264,3.68219973 C15.1476264,4.54979607 15.8588897,5.26298968 16.7241378,5.26298968 C17.5893859,5.26298968 18.3006492,4.54979607 18.3006492,3.68219973 C18.3006492,2.81460338 17.5893859,2.10140977 16.7241378,2.10140977" id="Fill-71" fill="#42210B"></path>
                            <path d="M16.7168052,2.88739324 C16.2768485,2.88739324 15.9395484,3.24031379 15.9395484,3.67411196 C15.9395484,4.11526265 16.2768485,4.47553571 16.7168052,4.47553571 C17.1567619,4.47553571 17.5087272,4.11526265 17.5087272,3.67411196 C17.5087272,3.2476663 17.1494293,2.88739324 16.7168052,2.88739324 M16.7168052,6.04897315 C15.418933,6.04897315 14.3703697,4.982859 14.3703697,3.67411196 C14.3703697,2.38006995 15.418933,1.3139558 16.7168052,1.3139558 C18.02201,1.3139558 19.077906,2.38006995 19.077906,3.67411196 C19.077906,4.982859 18.02201,6.04897315 16.7168052,6.04897315" id="Fill-73" fill="#BFAFA1"></path>
                            <path d="M23.1181746,7.24963826 C22.2529265,7.24963826 21.5416633,7.96283187 21.5416633,8.83042822 C21.5416633,9.69802457 22.2529265,10.4112182 23.1181746,10.4112182 C23.9834228,10.4112182 24.694686,9.69802457 24.694686,8.83042822 C24.694686,7.96283187 23.9834228,7.24963826 23.1181746,7.24963826" id="Fill-75" fill="#42210B"></path>
                            <path d="M23.1115753,8.03194548 C22.6716186,8.03194548 22.3343185,8.39221854 22.3343185,8.82601671 C22.3343185,9.2671674 22.6716186,9.62008795 23.1115753,9.62008795 C23.5441993,9.62008795 23.9034973,9.25981489 23.9034973,8.82601671 C23.9034973,8.39221854 23.5441993,8.03194548 23.1115753,8.03194548 M23.1115753,11.1935254 C21.8210358,11.1935254 20.7651398,10.1347637 20.7651398,8.82601671 C20.7651398,7.52462219 21.8210358,6.46586055 23.1115753,6.46586055 C24.4167801,6.46586055 25.4726761,7.52462219 25.4726761,8.82601671 C25.4726761,10.1347637 24.4167801,11.1935254 23.1115753,11.1935254" id="Fill-77" fill="#BFAFA1"></path>
                            <path d="M13.7881603,1.65584758 C13.1868862,1.65584758 12.6956013,2.14846584 12.6956013,2.75137178 C12.6956013,3.35427772 13.1868862,3.84689598 13.7881603,3.84689598 C14.3894345,3.84689598 14.8807194,3.35427772 14.8807194,2.75137178 C14.8807194,2.14846584 14.3894345,1.65584758 13.7881603,1.65584758" id="Fill-79" fill="#42210B"></path>
                            <path d="M13.7881603,2.4425663 C13.6121777,2.4425663 13.4801907,2.58226402 13.4801907,2.75137178 C13.4875233,3.10429233 14.1107952,3.08223479 14.1034626,2.75137178 C14.1034626,2.58226402 13.9568104,2.4425663 13.7881603,2.4425663 M13.7881603,4.6336147 C12.7542622,4.6336147 11.9110119,3.78807589 11.9110119,2.75137178 C11.9110119,1.71466767 12.7542622,0.869128858 13.7881603,0.869128858 C14.8293911,0.869128858 15.6726414,1.71466767 15.6726414,2.75137178 C15.6726414,3.78807589 14.8293911,4.6336147 13.7881603,4.6336147" id="Fill-81" fill="#BFAFA1"></path>
                        </g>
                        <path d="M45.6447705,68.8282236 C33.0400121,68.8282236 22.8330176,58.5861752 22.8330176,45.9545605 C22.8330176,33.3229459 33.0400121,23.0808975 45.6447705,23.0808975 C58.2421963,23.0808975 68.4491909,33.3229459 68.4491909,45.9545605 C68.4491909,58.5861752 58.2421963,68.8282236 45.6447705,68.8282236 M77.8569309,67.0856784 L70.2310154,60.6448784 C77.2043285,48.8955651 74.9605495,33.5067587 64.1816113,24.4043496 C52.2074574,14.2946464 34.3158865,15.8313213 24.2262137,27.8453249 C14.1365408,39.8593286 15.6690566,57.7994564 27.650543,67.9165121 C38.4294813,77.0115688 53.930621,76.6071806 64.2916004,67.7106418 L71.9175159,74.1514418 C73.8679905,75.7984044 76.7717044,75.548419 78.4142093,73.592651 C80.0493816,71.6442354 79.8000728,68.7252884 77.8569309,67.0856784" id="Fill-84" fill="#FBFBFB"></path>
                    </g>
                    <g id="Page-1" transform="translate(162.964957, 93.669895) rotate(107.000000) translate(-162.964957, -93.669895) translate(126.464957, 43.169895)">
                        <g id="Group-3" transform="translate(0.000000, 0.144100)" fill="#FFA700">
                            <path d="M49.6737,20.9709 L52.6077,21.8889 L51.6897,24.8139 L37.3707,70.6779 L36.4527,73.6209 L33.5187,72.7029 C26.6067,70.5429 20.9547,65.8179 17.5977,59.4099 C14.2317,53.0019 13.5747,45.6669 15.7347,38.7549 C20.1987,24.4989 35.4267,16.5159 49.6737,20.9709 M4.7727,66.1329 C9.9207,75.9699 18.6057,83.2149 29.2077,86.5179 L32.1327,87.4359 L31.2237,90.3699 L29.8647,94.7259 L43.5537,99.0009 L72.8667,5.1309 L59.1777,0.8559 L57.8457,5.1309 L56.9277,8.0649 L53.9847,7.1469 C32.1237,0.3159 8.7597,12.5469 1.9197,34.4169 L1.9107,34.4439 C-1.4013,45.0459 -0.3843,56.2959 4.7727,66.1329" id="Fill-1"></path>
                        </g>
                        <g id="Group-6" transform="translate(0.000000, 0.144100)">
                            <mask id="mask-12" fill="white">
                                <use xlink:href="#path-11"></use>
                            </mask>
                            <g id="Clip-5"></g>
                        </g>
                        <path d="M29.7837,82.819 C29.9547,82.873 30.1257,82.927 30.2967,82.981 C30.0087,83.872 29.7387,84.763 29.4597,85.645 C29.2707,85.591 29.0907,85.537 28.9107,85.474 C29.2077,84.592 29.4957,83.701 29.7837,82.819" id="Fill-7" fill="#2D3C50"></path>
                        <path d="M24.6339,80.8057 C24.7869,80.8777 24.9309,80.9407 25.0839,81.0127 C24.6789,81.8497 24.2739,82.6867 23.8689,83.5327 C23.6979,83.4607 23.5359,83.3887 23.3829,83.3077 C23.7969,82.4797 24.2199,81.6427 24.6339,80.8057" id="Fill-9" fill="#2D3C50"></path>
                        <path d="M20.0853,78.3451 C20.2203,78.4261 20.3463,78.5071 20.4813,78.5881 C19.9593,79.3711 19.4463,80.1541 18.9243,80.9281 C18.7803,80.8471 18.6363,80.7571 18.5013,80.6671 C19.0233,79.8931 19.5543,79.1191 20.0853,78.3451" id="Fill-11" fill="#2D3C50"></path>
                        <path d="M16.1307,75.484 C16.2477,75.574 16.3557,75.673 16.4727,75.763 C15.8517,76.474 15.2307,77.185 14.6187,77.896 L14.2497,77.59 L16.1307,75.484 Z" id="Fill-13" fill="#2D3C50"></path>
                        <path d="M12.7467,72.2674 C12.8457,72.3754 12.9357,72.4744 13.0347,72.5824 L10.9287,74.4814 C10.8207,74.3644 10.7127,74.2564 10.6137,74.1394 C11.3247,73.5184 12.0357,72.8974 12.7467,72.2674" id="Fill-15" fill="#2D3C50"></path>
                        <path d="M9.9252,68.752 C10.0062,68.869 10.0872,68.977 10.1592,69.094 C9.3852,69.634 8.6112,70.183 7.8372,70.732 C7.7472,70.606 7.6662,70.489 7.5852,70.363 C8.3592,69.832 9.1422,69.292 9.9252,68.752" id="Fill-17" fill="#2D3C50"></path>
                        <path d="M7.6446,64.981 C7.7076,65.098 7.7706,65.224 7.8336,65.341 C6.9966,65.791 6.1686,66.25 5.3406,66.7 C5.2686,66.574 5.2056,66.448 5.1336,66.313 C5.9706,65.872 6.8076,65.422 7.6446,64.981" id="Fill-19" fill="#2D3C50"></path>
                        <path d="M5.895,61.0039 C5.94,61.1299 5.985,61.2559 6.039,61.3819 C5.157,61.7419 4.275,62.0929 3.402,62.4439 C3.348,62.3179 3.294,62.1739 3.249,62.0389 C4.131,61.6969 5.013,61.3549 5.895,61.0039" id="Fill-21" fill="#2D3C50"></path>
                        <path d="M4.6557,56.8738 C4.6827,56.9998 4.7187,57.1348 4.7457,57.2608 C3.8457,57.5128 2.9367,57.7738 2.0277,58.0168 C1.9917,57.8818 1.9557,57.7468 1.9197,57.6028 C2.8287,57.3598 3.7467,57.1168 4.6557,56.8738" id="Fill-23" fill="#2D3C50"></path>
                        <path d="M3.9177,52.633 C3.9267,52.768 3.9447,52.894 3.9627,53.029 C3.0357,53.182 2.1087,53.326 1.1817,53.47 C1.1637,53.335 1.1457,53.191 1.1277,53.047 C2.0547,52.912 2.9817,52.768 3.9177,52.633" id="Fill-25" fill="#2D3C50"></path>
                        <path d="M3.6585,48.3301 L3.6585,48.7261 C2.7225,48.7711 1.7865,48.8161 0.8505,48.8611 L0.8505,48.4291 C1.7865,48.3931 2.7225,48.3571 3.6585,48.3301" id="Fill-27" fill="#2D3C50"></path>
                        <path d="M3.8691,44.0146 C3.8601,44.1496 3.8421,44.2846 3.8331,44.4106 C2.8971,44.3566 1.9701,44.2846 1.0341,44.2216 C1.0521,44.0776 1.0611,43.9336 1.0791,43.7986 C2.0061,43.8706 2.9331,43.9426 3.8691,44.0146" id="Fill-29" fill="#2D3C50"></path>
                        <path d="M4.5333,39.7432 C4.5063,39.8692 4.4793,40.0042 4.4523,40.1302 C3.5343,39.9592 2.6253,39.7972 1.7073,39.6262 C1.7343,39.4822 1.7613,39.3472 1.7883,39.2032 C2.7063,39.3832 3.6153,39.5632 4.5333,39.7432" id="Fill-31" fill="#2D3C50"></path>
                        <path d="M5.6358,35.551 C5.5908,35.677 5.5548,35.803 5.5188,35.929 C4.6278,35.659 3.7368,35.389 2.8368,35.11 L2.9718,34.705 C3.8628,34.984 4.7448,35.272 5.6358,35.551" id="Fill-33" fill="#2D3C50"></path>
                        <path d="M7.1568,31.4947 L6.9948,31.8637 C6.1488,31.4947 5.2938,31.1167 4.4388,30.7477 C4.4928,30.6127 4.5468,30.4777 4.6098,30.3517 C5.4648,30.7297 6.3108,31.1167 7.1568,31.4947" id="Fill-35" fill="#2D3C50"></path>
                        <path d="M9.0855,27.6238 C9.0225,27.7408 8.9505,27.8578 8.8965,27.9748 C8.0865,27.5068 7.2765,27.0388 6.4665,26.5618 C6.5385,26.4358 6.6105,26.3098 6.6825,26.1838 C7.4835,26.6698 8.2845,27.1468 9.0855,27.6238" id="Fill-37" fill="#2D3C50"></path>
                        <path d="M11.4102,23.9851 C11.3292,24.0931 11.2482,24.2011 11.1762,24.3091 C10.4292,23.7511 9.6732,23.1931 8.9262,22.6261 C9.0072,22.5091 9.0882,22.3921 9.1692,22.2751 C9.9162,22.8511 10.6632,23.4181 11.4102,23.9851" id="Fill-39" fill="#2D3C50"></path>
                        <path d="M14.1048,20.6227 C14.0148,20.7217 13.9248,20.8207 13.8438,20.9197 C13.1598,20.2807 12.4668,19.6327 11.7918,18.9847 C11.8818,18.8857 11.9808,18.7777 12.0708,18.6697 C12.7548,19.3177 13.4298,19.9747 14.1048,20.6227" id="Fill-41" fill="#2D3C50"></path>
                        <path d="M17.163,17.5951 C17.064,17.6851 16.965,17.7751 16.866,17.8561 C16.254,17.1361 15.651,16.4161 15.039,15.6961 C15.138,15.6061 15.255,15.5071 15.354,15.4171 C15.957,16.1371 16.56,16.8661 17.163,17.5951" id="Fill-43" fill="#2D3C50"></path>
                        <path d="M20.5686,14.941 C20.4606,15.013 20.3526,15.094 20.2356,15.166 C19.7136,14.383 19.1826,13.6 18.6606,12.808 C18.7776,12.727 18.8946,12.646 19.0116,12.565 C19.5336,13.357 20.0466,14.149 20.5686,14.941" id="Fill-45" fill="#2D3C50"></path>
                        <path d="M24.3045,12.7126 C24.1875,12.7756 24.0705,12.8386 23.9445,12.9016 C23.5125,12.0556 23.0715,11.2096 22.6395,10.3726 C22.7745,10.3006 22.9005,10.2376 23.0265,10.1746 C23.4495,11.0206 23.8815,11.8666 24.3045,12.7126" id="Fill-47" fill="#2D3C50"></path>
                        <path d="M28.3563,10.9594 C28.2213,11.0044 28.0953,11.0584 27.9693,11.1034 C27.6273,10.2124 27.2943,9.3304 26.9613,8.4394 C27.0963,8.3854 27.2403,8.3404 27.3843,8.2864 L28.3563,10.9594" id="Fill-49" fill="#2D3C50"></path>
                        <path d="M32.706,9.7336 C32.571,9.7606 32.427,9.7876 32.292,9.8236 C32.067,8.9056 31.833,7.9876 31.599,7.0696 C31.752,7.0336 31.905,7.0066 32.049,6.9706 C32.274,7.8886 32.49,8.8066 32.706,9.7336" id="Fill-51" fill="#2D3C50"></path>
                        <path d="M37.3428,9.0739 C37.1988,9.0829 37.0458,9.0919 36.9018,9.1099 C36.7848,8.1739 36.6768,7.2379 36.5598,6.3019 C36.7218,6.2839 36.8748,6.2749 37.0368,6.2659 C37.1358,7.2019 37.2438,8.1379 37.3428,9.0739" id="Fill-53" fill="#2D3C50"></path>
                        <path d="M42.2514,9.0388 C42.0984,9.0298 41.9364,9.0208 41.7834,9.0208 C41.7924,8.0758 41.7924,7.1398 41.8014,6.2038 L42.3054,6.2308 C42.2874,7.1668 42.2694,8.1028 42.2514,9.0388" id="Fill-55" fill="#2D3C50"></path>
                        <path d="M47.4102,9.6715 C47.2482,9.6445 47.0862,9.6175 46.9242,9.5815 C47.0502,8.6635 47.1942,7.7365 47.3202,6.8095 C47.5002,6.8455 47.6712,6.8725 47.8422,6.9085 C47.6982,7.8265 47.5632,8.7445 47.4102,9.6715" id="Fill-57" fill="#2D3C50"></path>
                        <path d="M52.8111,11.0251 C52.6401,10.9711 52.4691,10.9171 52.2981,10.8631 C52.5681,9.9721 52.8291,9.0811 53.0991,8.1901 C53.2791,8.2441 53.4681,8.2981 53.6481,8.3611 C53.3691,9.2431 53.0901,10.1341 52.8111,11.0251" id="Fill-59" fill="#2D3C50"></path>
                        <path d="M26.6463,83.0476 C26.8083,83.1106 26.9793,83.1826 27.1413,83.2366 C26.9523,83.7136 26.7633,84.1816 26.5833,84.6586 C26.4033,84.5866 26.2323,84.5236 26.0613,84.4606 C26.2593,83.9836 26.4573,83.5156 26.6463,83.0476" id="Fill-61" fill="#2D3C50"></path>
                        <path d="M21.6369,80.731 C21.7809,80.812 21.9249,80.893 22.0689,80.965 C21.8259,81.406 21.5649,81.847 21.3129,82.288 C21.1599,82.207 21.0069,82.126 20.8629,82.045 C21.1149,81.604 21.3759,81.172 21.6369,80.731" id="Fill-63" fill="#2D3C50"></path>
                        <path d="M17.2422,77.9716 C17.3682,78.0616 17.4942,78.1516 17.6202,78.2416 C17.3142,78.6556 16.9992,79.0606 16.6932,79.4656 C16.5582,79.3666 16.4232,79.2766 16.2972,79.1776 C16.6122,78.7816 16.9272,78.3766 17.2422,77.9716" id="Fill-65" fill="#2D3C50"></path>
                        <path d="M13.4496,74.8252 C13.5576,74.9332 13.6656,75.0322 13.7826,75.1312 C13.4136,75.5002 13.0536,75.8692 12.6936,76.2292 C12.5766,76.1302 12.4686,76.0132 12.3516,75.9142 C12.7206,75.5542 13.0806,75.1942 13.4496,74.8252" id="Fill-67" fill="#2D3C50"></path>
                        <path d="M10.2456,71.3404 C10.3356,71.4574 10.4256,71.5654 10.5156,71.6824 L9.3096,72.6454 C9.2106,72.5194 9.1206,72.4114 9.0216,72.2854 C9.4266,71.9704 9.8406,71.6554 10.2456,71.3404" id="Fill-69" fill="#2D3C50"></path>
                        <path d="M7.6095,67.5694 C7.6815,67.6864 7.7535,67.8034 7.8255,67.9294 C7.3935,68.1994 6.9525,68.4784 6.5115,68.7484 C6.4395,68.6224 6.3585,68.4964 6.2865,68.3704 C6.7275,68.1004 7.1685,67.8304 7.6095,67.5694" id="Fill-71" fill="#2D3C50"></path>
                        <path d="M5.5305,63.5572 C5.5845,63.6832 5.6385,63.8092 5.7015,63.9352 C5.2335,64.1602 4.7655,64.3762 4.2975,64.6012 C4.2345,64.4662 4.1805,64.3312 4.1175,64.2052 C4.5945,63.9892 5.0625,63.7732 5.5305,63.5572" id="Fill-73" fill="#2D3C50"></path>
                        <path d="M3.9834,59.3605 C4.0194,59.4955 4.0644,59.6215 4.1094,59.7565 C3.6144,59.9185 3.1284,60.0895 2.6424,60.2515 C2.6064,60.1165 2.5614,59.9725 2.5164,59.8375 C3.0114,59.6845 3.4974,59.5225 3.9834,59.3605" id="Fill-75" fill="#2D3C50"></path>
                        <path d="M2.9646,55.0234 C2.9916,55.1584 3.0096,55.2934 3.0366,55.4284 C2.5416,55.5454 2.0376,55.6534 1.5336,55.7614 C1.5066,55.6174 1.4796,55.4734 1.4616,55.3384 C1.9656,55.2304 2.4606,55.1314 2.9646,55.0234" id="Fill-77" fill="#2D3C50"></path>
                        <path d="M2.4498,50.6026 C2.4588,50.7376 2.4678,50.8726 2.4768,51.0166 C1.9728,51.0706 1.4598,51.1156 0.9468,51.1696 C0.9468,51.0256 0.9378,50.8816 0.9288,50.7466 C1.4328,50.6926 1.9458,50.6476 2.4498,50.6026" id="Fill-79" fill="#2D3C50"></path>
                        <path d="M2.4282,46.1422 C2.4282,46.2862 2.4192,46.4212 2.4102,46.5562 C1.8972,46.5472 1.3932,46.5472 0.8892,46.5382 C0.8892,46.3942 0.8982,46.2502 0.9072,46.1062 C1.4112,46.1242 1.9242,46.1332 2.4282,46.1422" id="Fill-81" fill="#2D3C50"></path>
                        <path d="M2.8854,41.6989 C2.8674,41.8339 2.8404,41.9689 2.8224,42.1039 C2.3184,42.0499 1.8144,41.9779 1.3104,41.9149 C1.3284,41.7709 1.3554,41.6359 1.3734,41.4919 C1.8774,41.5549 2.3814,41.6269 2.8854,41.6989" id="Fill-83" fill="#2D3C50"></path>
                        <path d="M3.7989,37.3132 C3.7629,37.4482 3.7269,37.5832 3.6909,37.7182 C3.2049,37.5922 2.7099,37.4752 2.2149,37.3492 C2.2509,37.2142 2.2869,37.0792 2.3229,36.9352 C2.8179,37.0612 3.3039,37.1872 3.7989,37.3132" id="Fill-85" fill="#2D3C50"></path>
                        <path d="M5.157,33.0463 C5.112,33.1813 5.058,33.3073 5.013,33.4333 C4.536,33.2623 4.059,33.0823 3.582,32.9023 C3.636,32.7763 3.681,32.6413 3.735,32.4973 C4.212,32.6863 4.68,32.8663 5.157,33.0463" id="Fill-87" fill="#2D3C50"></path>
                        <path d="M6.9417,28.9459 L6.7527,29.3149 C6.3117,29.0899 5.8527,28.8559 5.4027,28.6219 C5.4657,28.4959 5.5287,28.3699 5.5917,28.2349 C6.0417,28.4779 6.4917,28.7119 6.9417,28.9459" id="Fill-89" fill="#2D3C50"></path>
                        <path d="M9.1431,25.057 C9.0711,25.174 8.9901,25.282 8.9181,25.408 C8.4951,25.12 8.0721,24.841 7.6401,24.562 C7.7211,24.445 7.8021,24.319 7.8741,24.193 C8.2971,24.49 8.7201,24.769 9.1431,25.057" id="Fill-91" fill="#2D3C50"></path>
                        <path d="M11.736,21.4318 C11.655,21.5398 11.565,21.6478 11.484,21.7558 C11.088,21.4318 10.701,21.0988 10.305,20.7658 C10.395,20.6578 10.485,20.5408 10.575,20.4328 C10.962,20.7658 11.349,21.0988 11.736,21.4318" id="Fill-93" fill="#2D3C50"></path>
                        <path d="M14.715,18.1225 L14.427,18.4105 C14.067,18.0415 13.716,17.6725 13.365,17.2945 C13.464,17.1955 13.563,17.0965 13.662,16.9975 C14.013,17.3755 14.364,17.7445 14.715,18.1225" id="Fill-95" fill="#2D3C50"></path>
                        <path d="M18.0594,15.1777 C17.9514,15.2587 17.8434,15.3487 17.7354,15.4297 C17.4204,15.0247 17.1144,14.6107 16.7994,14.2057 C16.9164,14.1067 17.0244,14.0257 17.1414,13.9357 C17.4474,14.3497 17.7534,14.7637 18.0594,15.1777" id="Fill-97" fill="#2D3C50"></path>
                        <path d="M21.7512,12.6469 C21.6342,12.7189 21.5172,12.7909 21.3912,12.8629 C21.1302,12.4219 20.8692,11.9719 20.6082,11.5309 L20.9772,11.3059 C21.2382,11.7559 21.4902,12.2059 21.7512,12.6469" id="Fill-99" fill="#2D3C50"></path>
                        <path d="M25.776,10.5859 C25.65,10.6399 25.515,10.6939 25.389,10.7569 C25.182,10.2799 24.966,9.8119 24.759,9.3439 C24.894,9.2809 25.029,9.2269 25.164,9.1639 C25.371,9.6409 25.569,10.1089 25.776,10.5859" id="Fill-101" fill="#2D3C50"></path>
                        <path d="M30.1221,9.0388 C29.9781,9.0748 29.8431,9.1198 29.7081,9.1558 L29.2401,7.6798 C29.3841,7.6438 29.5371,7.5988 29.6721,7.5538 C29.8251,8.0488 29.9691,8.5438 30.1221,9.0388" id="Fill-103" fill="#2D3C50"></path>
                        <path d="M34.7715,8.0587 C34.6185,8.0767 34.4745,8.0947 34.3305,8.1217 C34.2315,7.6177 34.1415,7.1137 34.0425,6.6007 C34.1955,6.5827 34.3485,6.5557 34.5015,6.5377 C34.5915,7.0417 34.6815,7.5457 34.7715,8.0587" id="Fill-105" fill="#2D3C50"></path>
                        <path d="M39.7071,7.6942 L39.2391,7.6942 C39.2031,7.1902 39.1761,6.6772 39.1491,6.1642 L39.6351,6.1642 C39.6621,6.6682 39.6801,7.1812 39.7071,7.6942" id="Fill-107" fill="#2D3C50"></path>
                        <path d="M44.91,7.993 C44.748,7.975 44.577,7.957 44.415,7.939 C44.451,7.435 44.496,6.922 44.532,6.418 C44.703,6.436 44.874,6.454 45.045,6.472 C45,6.985 44.955,7.489 44.91,7.993" id="Fill-109" fill="#2D3C50"></path>
                        <path d="M50.3721,9.0172 C50.2011,8.9722 50.0211,8.9272 49.8501,8.8912 C49.9671,8.3962 50.0751,7.8922 50.1831,7.3972 C50.3631,7.4422 50.5431,7.4872 50.7141,7.5322 C50.5971,8.0272 50.4891,8.5222 50.3721,9.0172" id="Fill-111" fill="#2D3C50"></path>
                        <g id="Group-115" transform="translate(67.000000, 5.144100)">
                            <mask id="mask-14" fill="white">
                                <use xlink:href="#path-13"></use>
                            </mask>
                            <g id="Clip-114"></g>
                            <polygon id="Fill-113" fill="#2D3C50" mask="url(#mask-14)" points="0.0581 1.0561 0.2111 0.5701 5.2961 2.1631 5.1431 2.6491"></polygon>
                        </g>
                        <g id="Group-118" transform="translate(65.000000, 10.144100)">
                            <mask id="mask-16" fill="white">
                                <use xlink:href="#path-15"></use>
                            </mask>
                            <g id="Clip-117"></g>
                            <polygon id="Fill-116" fill="#2D3C50" mask="url(#mask-16)" points="0.4147 1.3121 0.5677 0.8261 5.6527 2.4191 5.4907 2.9051"></polygon>
                        </g>
                        <polygon id="Fill-119" fill="#2D3C50" points="63.7713 16.7122 63.9243 16.2262 69.0093 17.8192 68.8473 18.3052"></polygon>
                        <polygon id="Fill-121" fill="#2D3C50" points="62.1234 21.9673 62.2764 21.4813 67.3614 23.0743 67.2084 23.5603"></polygon>
                        <polygon id="Fill-123" fill="#2D3C50" points="60.48 27.2233 60.633 26.7373 65.718 28.3303 65.556 28.8163"></polygon>
                        <polygon id="Fill-125" fill="#2D3C50" points="58.8321 32.4793 58.9851 31.9933 64.0701 33.5863 63.9171 34.0723"></polygon>
                        <polygon id="Fill-127" fill="#2D3C50" points="57.1887 37.7353 57.3417 37.2493 62.4267 38.8423 62.2737 39.3283"></polygon>
                        <polygon id="Fill-129" fill="#2D3C50" points="55.5444 42.9913 55.6974 42.5053 60.7824 44.0983 60.6204 44.5843"></polygon>
                        <polygon id="Fill-131" fill="#2D3C50" points="53.8965 48.2473 54.0495 47.7613 59.1345 49.3543 58.9815 49.8403"></polygon>
                        <polygon id="Fill-133" fill="#2D3C50" points="52.2531 53.5069 52.4061 53.0209 57.4911 54.6049 57.3291 55.0909"></polygon>
                        <polygon id="Fill-135" fill="#2D3C50" points="50.6097 58.7629 50.7627 58.2769 55.8477 59.8609 55.6857 60.3469"></polygon>
                        <polygon id="Fill-137" fill="#2D3C50" points="48.9618 64.0189 49.1148 63.5329 54.1998 65.1259 54.0468 65.6029"></polygon>
                        <polygon id="Fill-139" fill="#2D3C50" points="47.3184 69.2749 47.4714 68.7889 52.5564 70.3819 52.4034 70.8679"></polygon>
                        <polygon id="Fill-141" fill="#2D3C50" points="45.675 74.5309 45.828 74.0449 50.913 75.6379 50.751 76.1239"></polygon>
                        <polygon id="Fill-143" fill="#2D3C50" points="44.0307 79.7869 44.1837 79.3009 49.2687 80.8939 49.1067 81.3799"></polygon>
                        <polygon id="Fill-145" fill="#2D3C50" points="42.3828 85.042 42.5358 84.556 47.6208 86.149 47.4588 86.635"></polygon>
                        <polygon id="Fill-147" fill="#2D3C50" points="40.7394 90.298 40.8924 89.812 45.9774 91.405 45.8154 91.891"></polygon>
                        <g id="Group-151" transform="translate(39.000000, 94.144100)">
                            <mask id="mask-18" fill="white">
                                <use xlink:href="#path-17"></use>
                            </mask>
                            <g id="Clip-150"></g>
                            <polygon id="Fill-149" fill="#2D3C50" mask="url(#mask-18)" points="0.0915 1.4099 0.2445 0.9239 5.3295 2.5169 5.1765 3.0029"></polygon>
                        </g>
                        <g id="Group-154" transform="translate(68.000000, 8.144100)">
                            <mask id="mask-20" fill="white">
                                <use xlink:href="#path-19"></use>
                            </mask>
                            <g id="Clip-153"></g>
                            <polygon id="Fill-152" fill="#2D3C50" mask="url(#mask-20)" points="0.553 1.4086 0.706 0.9226 3.469 1.7866 3.316 2.2726"></polygon>
                        </g>
                        <g id="Group-157" transform="translate(66.000000, 14.144100)">
                            <mask id="mask-22" fill="white">
                                <use xlink:href="#path-21"></use>
                            </mask>
                            <g id="Clip-156"></g>
                            <polygon id="Fill-155" fill="#2D3C50" mask="url(#mask-22)" points="0.9087 0.6646 1.0617 0.1786 3.8247 1.0426 3.6717 1.5286"></polygon>
                        </g>
                        <g id="Group-160" transform="translate(65.000000, 19.144100)">
                            <mask id="mask-24" fill="white">
                                <use xlink:href="#path-23"></use>
                            </mask>
                            <g id="Clip-159"></g>
                            <polygon id="Fill-158" fill="#2D3C50" mask="url(#mask-24)" points="0.2608 0.9206 0.4138 0.4346 3.1858 1.2986 3.0328 1.7846"></polygon>
                        </g>
                        <polygon id="Fill-161" fill="#2D3C50" points="63.6174 25.3207 63.7704 24.8347 66.5334 25.6987 66.3894 26.1847"></polygon>
                        <polygon id="Fill-163" fill="#2D3C50" points="61.9695 30.5767 62.1225 30.0907 64.8945 30.9547 64.7415 31.4407"></polygon>
                        <polygon id="Fill-165" fill="#2D3C50" points="60.3261 35.8327 60.4791 35.3467 63.2511 36.2107 63.0981 36.6967"></polygon>
                        <polygon id="Fill-167" fill="#2D3C50" points="58.6827 41.0878 58.8357 40.6018 61.5987 41.4658 61.4457 41.9518"></polygon>
                        <polygon id="Fill-169" fill="#2D3C50" points="57.0348 46.3438 57.1878 45.8578 59.9598 46.7218 59.8068 47.2078"></polygon>
                        <polygon id="Fill-171" fill="#2D3C50" points="55.3914 51.5998 55.5444 51.1138 58.3074 51.9778 58.1634 52.4638"></polygon>
                        <polygon id="Fill-173" fill="#2D3C50" points="53.7471 56.8558 53.9001 56.3698 56.6631 57.2338 56.5101 57.7198"></polygon>
                        <polygon id="Fill-175" fill="#2D3C50" points="52.0992 62.1118 52.2522 61.6258 55.0242 62.4898 54.8712 62.9848"></polygon>
                        <polygon id="Fill-177" fill="#2D3C50" points="50.4558 67.3723 50.6088 66.8863 53.3718 67.7503 53.2278 68.2363"></polygon>
                        <polygon id="Fill-179" fill="#2D3C50" points="48.8124 72.6274 48.9654 72.1414 51.7284 73.0054 51.5754 73.4914"></polygon>
                        <polygon id="Fill-181" fill="#2D3C50" points="47.1645 77.8834 47.3175 77.3974 50.0895 78.2614 49.9365 78.7474"></polygon>
                        <polygon id="Fill-183" fill="#2D3C50" points="45.5211 83.1394 45.6741 82.6534 48.4371 83.5174 48.2931 84.0034"></polygon>
                        <polygon id="Fill-185" fill="#2D3C50" points="43.8777 88.3954 44.0307 87.9094 46.7937 88.7734 46.6407 89.2594"></polygon>
                        <g id="Group-189" transform="translate(42.000000, 93.144100)">
                            <mask id="mask-26" fill="white">
                                <use xlink:href="#path-25"></use>
                            </mask>
                            <g id="Clip-188"></g>
                            <polygon id="Fill-187" fill="#2D3C50" mask="url(#mask-26)" points="0.2334 0.5073 0.3864 0.0213 3.1494 0.8853 2.9964 1.3713"></polygon>
                        </g>
                    </g>
                    <g id="Page-1" transform="translate(89.500000, 44.000000) rotate(53.000000) translate(-89.500000, -44.000000) translate(55.000000, 18.000000)">
                        <polygon id="Fill-1" fill="#F9F9F9" points="51.5658718 46.4052371 56.8547607 41.4989514 55.9992051 38.2589514 51.9392051 37.4258086"></polygon>
                        <polygon id="Fill-2" fill="#FBFBFB" points="56.8578718 41.4966371 58.6234274 48.0769229 61.4623162 47.8223514 62.3489829 40.5323514 62.800094 39.6683514 59.5645385 38.9972086"></polygon>
                        <polygon id="Fill-3" fill="#FBFBFB" points="49.8228718 48.0090371 51.4873162 48.2173229 51.565094 46.4044657"></polygon>
                        <polygon id="Fill-4" fill="#FBFBFB" points="42.5008718 24.49358 46.1875385 24.5707229 44.7719829 22.8890086"></polygon>
                        <polygon id="Fill-5" fill="#F7F7F7" points="45.8818718 51.66098 49.8252051 48.0121229 48.604094 47.8655514 44.8007607 44.1472657"></polygon>
                        <polygon id="Fill-6" fill="#FBFBFB" points="42.0388718 24.8129514 42.4977607 24.4966657 41.9922051 24.4812371"></polygon>
                        <polygon id="Fill-7" fill="#FBFBFB" points="40.2118718 37.85858 42.1329829 35.3977229 40.3596496 35.0351514"></polygon>
                        <polygon id="Fill-8" fill="#FBFBFB" points="48.4858718 27.2984943 50.5547607 24.6602086 46.1914274 24.5676371"></polygon>
                        <polygon id="Fill-9" fill="#FBFBFB" points="40.5338718 31.63778 40.3627607 35.0320657 42.1283162 35.4023514 43.3338718 33.8749229 42.3383162 26.9243514 39.8805385 26.3303514"></polygon>
                        <polygon id="Fill-10" fill="#FBFBFB" points="52.3708718 24.7018657 52.4564274 25.0181514 52.4719829 24.7018657"></polygon>
                        <polygon id="Fill-11" fill="#FBFBFB" points="51.9018718 22.9453229 52.3685385 24.70418 52.4696496 24.70418 52.5707607 22.0813229"></polygon>
                        <polygon id="Fill-12" fill="#EDEDED" points="43.3338718 33.87338 47.7594274 28.2188086 42.3383162 26.9228086"></polygon>
                        <polygon id="Fill-13" fill="#FBFBFB" points="50.5578718 24.6602086 52.370094 24.69878 51.9034274 22.9476371"></polygon>
                        <polygon id="Fill-14" fill="#FBFBFB" points="59.5668718 38.9972086 62.8024274 39.6683514 64.319094 36.6983514 67.9824274 35.6954943 68.6046496 30.6272086"></polygon>
                        <polygon id="Fill-15" fill="#FBFBFB" points="56.8578718 41.4966371 59.5645385 38.9972086 55.9945385 38.2643514"></polygon>
                        <polygon id="Fill-16" fill="#FBFBFB" points="52.5738718 22.0844086 52.4649829 24.6995514 67.2194274 25.0081229 64.5672051 21.0275514 58.5705385 22.8095514 59.1149829 18.3275514 55.8327607 17.9341229"></polygon>
                        <polygon id="Fill-17" fill="#F7F7F7" points="40.2118718 37.85858 40.1185385 39.5634371 44.2096496 39.9954371 43.6029829 35.7062943 42.1329829 35.3977229"></polygon>
                        <polygon id="Fill-18" fill="#EDEDED" points="44.2088718 39.99698 49.4977607 40.5601229 48.6033162 47.8655514 49.8244274 48.0121229 51.5666496 46.4075514 51.9399829 37.4281229 43.6022051 35.7078371"></polygon>
                        <polygon id="Fill-19" fill="#FFFFFF" points="52.4548718 25.0212371 55.9937607 38.2589514 59.5637607 38.9995229 68.6015385 30.6295229 68.9748718 27.6286657 67.217094 25.0058086 52.4704274 24.7049514"></polygon>
                        <polygon id="Fill-20" fill="#FFFFFF" points="52.3677607 24.69878 50.5555385 24.6602086 48.4866496 27.2984943 49.6533162 28.6793514 47.7633162 28.2242086 43.3377607 33.8710657 43.6022051 35.7070657 51.9322051 37.4273514 52.4533162 25.02278"></polygon>
                        <polygon id="Fill-21" fill="#E0E0E0" points="51.9368718 37.4281229 55.9968718 38.2612657 52.4579829 25.0235514"></polygon>
                        <polygon id="Fill-22" fill="#FBFBFB" points="42.1298718 35.4008086 43.5998718 35.70938 43.3354274 33.87338"></polygon>
                        <polygon id="Fill-23" fill="#FFFFFF" points="51.5658718 46.4052371 51.488094 48.2180943 53.9225385 48.5112371 58.6203162 48.0792371 56.8547607 41.4989514"></polygon>
                        <polygon id="Fill-24" fill="#FBFBFB" points="44.8038718 44.1488086 48.6072051 47.8670943 46.4372051 44.3185229 44.6327607 42.9608086"></polygon>
                        <polygon id="Fill-25" fill="#FBFBFB" points="44.8038718 44.1488086 44.6327607 42.9608086 40.1216496 39.5588086"></polygon>
                        <polygon id="Fill-26" fill="#F9F9F9" points="44.6358718 42.96158 46.4325385 44.3192943 48.6025385 47.8601514 49.5047607 40.5624371 44.208094 39.9992943"></polygon>
                        <polygon id="Fill-27" fill="#F7F7F7" points="44.6358718 42.96158 44.208094 39.9992943 40.1169829 39.55958"></polygon>
                        <polygon id="Fill-28" fill="#FBFBFB" points="39.8828718 26.3334371 42.3406496 26.9274371 42.0373162 24.8137229"></polygon>
                        <polygon id="Fill-29" fill="#FBFBFB" points="47.7578718 28.2218943 49.6556496 28.6770371 48.4889829 27.29618"></polygon>
                        <polygon id="Fill-30" fill="#F7F7F7" points="42.0388718 24.8129514 42.3422051 26.9266657 47.7555385 28.2226657 48.4866496 27.2969514 46.1922051 24.5738086 42.4977607 24.4966657"></polygon>
                        <polygon id="Fill-31" fill="#EBEBEB" points="4.56787179 19.3558657 6.32564957 21.2921514 9.29676068 24.6710086 14.6945385 24.1850086 15.0134274 23.9998657 6.22453846 14.34158"></polygon>
                        <polygon id="Fill-32" fill="#FFFFFF" points="1.83087179 9.51783714 6.22531624 14.34698 7.83531624 9.47926571"></polygon>
                        <polygon id="Fill-33" fill="#EFEFEF" points="14.3818718 9.44146571 11.8929829 17.71118 15.8829829 15.7054657 14.4752051 9.44146571"></polygon>
                        <polygon id="Fill-34" fill="#FFFFFF" points="14.4378718 9.26095143 14.4767607 9.43838 21.6323162 9.39209429 20.8623162 7.64866571 19.260094 6.23695143 16.8334274 1.30752286"></polygon>
                        <polygon id="Fill-35" fill="#EBEBEB" points="17.4058718 22.5295229 21.5825385 19.96838 21.9869829 16.1498086 25.0125385 12.6398086 23.9236496 11.6446657 15.8814274 15.70238"></polygon>
                        <polygon id="Fill-36" fill="#FFFFFF" points="1.16587179 9.44840857 1.15809402 9.51783714 1.82698291 9.51783714 1.35253846 8.99326571"></polygon>
                        <polygon id="Fill-37" fill="#FFFFFF" points="14.4728718 9.44146571 15.8806496 15.7054657 23.9306496 11.6400371 21.7373162 9.64203714 21.6362051 9.39518"></polygon>
                        <polygon id="Fill-38" fill="#FBFBFB" points="1.15887179 9.51783714 0.793316239 16.5224086 3.07998291 17.7258371 4.56553846 19.3535514 6.22998291 14.34698 1.82776068 9.51783714"></polygon>
                        <polygon id="Fill-39" fill="#FFFFFF" points="3.23787179 4.61618 1.35564957 8.99789429 1.83009402 9.51475143 7.83453846 9.47618 10.4634274 1.53046571 7.95898291 1.03675143"></polygon>
                        <polygon id="Fill-40" fill="#FFFFFF" points="14.3818718 9.44146571 14.4752051 9.44146571 14.4363162 9.26403714"></polygon>
                        <polygon id="Fill-41" fill="#FFFFFF" points="16.5798718 0.797608571 12.7843162 1.87760857 14.4409829 9.26018 16.8287607 1.30675143"></polygon>
                        <polygon id="Fill-42" fill="#F5F5F5" points="7.83687179 9.47618 6.22687179 14.3438943 15.0157607 24.00218 17.4035385 22.5287514 15.879094 15.7016086 11.8968718 17.7073229 14.3857607 9.43760857"></polygon>
                        <polygon id="Fill-43" fill="#FBFBFB" points="7.83687179 9.47618 14.3857607 9.43760857 14.4402051 9.26018 12.7835385 1.87760857 12.589094 1.93932286 10.4657607 1.52275143"></polygon>
                    </g>
                </g>
            </g>
        </g>
    </g>
</svg>