<?xml version="1.0" encoding="UTF-8"?>
<svg width="185px" height="162px" viewBox="0 0 185 162" version="1.1" xmlns="http://www.w3.org/2000/svg" xmlns:xlink="http://www.w3.org/1999/xlink">
    <!-- Generator: Sketch 46.2 (44496) - http://www.bohemiancoding.com/sketch -->
    <title>Footer</title>
    <desc>Created with Sketch.</desc>
    <defs>
        <polygon id="path-1" points="0 0.000191820052 0 78.6177 31.7387 78.6177 31.7387 0.000191820052"></polygon>
    </defs>
    <g id="Symbols" stroke="none" stroke-width="1" fill="none" fill-rule="evenodd">
        <g id="Footer" transform="translate(-1.000000, -423.000000)">
            <g transform="translate(-79.000000, -75.000000)" id="Group-2-Copy-8">
                <g style="mix-blend-mode: multiply;" transform="translate(278.000000, 375.500000) scale(-1, 1) translate(-278.000000, -375.500000) ">
                    <g id="Footer" transform="translate(291.000000, 498.000000)">
                        <polygon id="Rectangle-2" fill-opacity="0.499971694" fill="#39DFA1" transform="translate(132.455100, 126.724446) rotate(49.000000) translate(-132.455100, -126.724446) " points="192.965554 109.716067 71.9446459 248.934696 71.9446459 4.51419643"></polygon>
                        <g id="Page-1" transform="translate(123.000000, 60.500000) scale(-1, 1) translate(-123.000000, -60.500000) translate(107.000000, 21.000000)">
                            <mask id="mask-2" fill="white">
                                <use xlink:href="#path-1"></use>
                            </mask>
                            <g id="Clip-2"></g>
                            <path d="M9.0907,39.7871 C8.4457,36.3901 8.4377,33.0521 9.7067,29.8661 C12.2887,23.3851 14.2827,16.7241 16.2977,10.0541 C16.9557,7.8761 16.1857,6.1811 15.9447,4.2601 C15.7647,2.8291 15.2897,1.2001 16.9687,0.2521 C17.7427,-0.1849 18.6327,-0.0299 19.3027,0.5361 C20.5837,1.6171 20.7527,2.8551 20.1897,4.5271 C17.6037,12.1981 20.5637,19.2081 23.3877,26.0471 C24.6157,29.0211 28.7637,29.0481 31.7387,31.9641 C27.3917,30.9401 24.3147,29.3871 20.9037,27.0631 C20.6677,35.5181 18.6937,43.6111 22.0507,51.6741 C24.3557,57.2101 25.4027,63.1501 26.5047,69.0191 C27.0027,71.6731 27.3737,73.9811 31.6777,73.6451 C25.4157,76.9151 25.1657,76.9311 24.0187,71.4721 C22.5387,64.4341 20.1527,57.8191 15.8057,50.9201 C12.6907,59.6541 8.3707,67.0091 3.0107,73.7421 C1.3307,75.8521 4.1427,76.9101 4.2137,78.6181 C-0.1373,77.4881 -1.2173,75.5461 1.4337,72.1211 C11.5057,59.1061 12.4787,43.8941 12.5987,28.4071 C10.1387,31.7971 10.8997,36.1611 9.0907,39.7871" id="Fill-1" fill="#231F20" mask="url(#mask-2)"></path>
                        </g>
                    </g>
                </g>
            </g>
        </g>
    </g>
</svg>