<?xml version="1.0" encoding="UTF-8"?>
<svg width="241px" height="64px" viewBox="0 0 241 64" version="1.1" xmlns="http://www.w3.org/2000/svg" xmlns:xlink="http://www.w3.org/1999/xlink">
    <!-- Generator: sketchtool 49.2 (51160) - http://www.bohemiancoding.com/sketch -->
    <title>73F3922F-3519-4326-B86F-B7D1EBC609AC</title>
    <desc>Created with sketchtool.</desc>
    <defs>
        <filter x="-14.1%" y="-80.9%" width="128.2%" height="273.5%" filterUnits="objectBoundingBox" id="filter-1">
            <feOffset dx="0" dy="2" in="SourceAlpha" result="shadowOffsetOuter1"></feOffset>
            <feGaussianBlur stdDeviation="9.5" in="shadowOffsetOuter1" result="shadowBlurOuter1"></feGaussianBlur>
            <feColorMatrix values="0 0 0 0 0   0 0 0 0 0   0 0 0 0 0  0 0 0 0.5 0" type="matrix" in="shadowBlurOuter1" result="shadowMatrixOuter1"></feColorMatrix>
            <feMerge>
                <feMergeNode in="shadowMatrixOuter1"></feMergeNode>
                <feMergeNode in="SourceGraphic"></feMergeNode>
            </feMerge>
        </filter>
    </defs>
    <g id="Design" stroke="none" stroke-width="1" fill="none" fill-rule="evenodd">
        <g id="Project" transform="translate(-16.000000, -10.000000)">
            <g id="LANDEZINE-PRO" filter="url(#filter-1)" transform="translate(35.000000, 25.000000)">
                <path d="M166.911159,29 L156,23.1652717 L156,4.8759285 L179.500215,3.04131131 L179.499785,26.9586887 L166.911159,29 Z M192.088841,1 L203,6.83472827 L203,25.1240715 L179.500215,26.9586887 L179.500215,3.04131131 L192.088841,1 Z" id="Combined-Shape-Copy" fill="#1531FF" transform="translate(179.500000, 15.000000) scale(1, -1) translate(-179.500000, -15.000000) "></path>
                <g id="Group" fill="#FFFFFF">
                    <path d="M0.275768202,25.5779817 L13.0847043,25.5779817 L13.0847043,21.9970642 L4.19739079,21.9970642 L4.19739079,7.6733945 L0.275768202,7.6733945 L0.275768202,25.5779817 Z M14.5107489,25.5779817 L22.1502734,7.54550459 L25.766315,7.54550459 L33.4058395,25.5779817 L29.3059614,25.5779817 L27.6761961,21.5622385 L20.1385319,21.5622385 L18.5087667,25.5779817 L14.5107489,25.5779817 Z M21.5391114,18.083633 L26.2756166,18.083633 L23.907364,12.2774312 L21.5391114,18.083633 Z M36.1560684,25.5779817 L40.0267608,25.5779817 L40.0267608,14.1957798 L48.6594235,25.5779817 L51.9953492,25.5779817 L51.9953492,7.6733945 L48.1246568,7.6733945 L48.1246568,18.6975046 L39.77211,7.6733945 L36.1560684,7.6733945 L36.1560684,25.5779817 Z M56.2734829,25.5779817 L56.2734829,7.6733945 L63.2254502,7.6733945 C68.8277682,7.6733945 72.6984606,11.5356697 72.6984606,16.5745321 L72.6984606,16.6256881 C72.6984606,21.6645505 68.8277682,25.5779817 63.2254502,25.5779817 L56.2734829,25.5779817 Z M60.1951055,22.0226422 L63.2254502,22.0226422 C66.4340505,22.0226422 68.5985825,19.8485138 68.5985825,16.676844 L68.5985825,16.6256881 C68.5985825,13.4540183 66.4340505,11.2287339 63.2254502,11.2287339 L60.1951055,11.2287339 L60.1951055,22.0226422 Z M76.1871768,25.5779817 L89.7600654,25.5779817 L89.7600654,22.0737982 L80.0833343,22.0737982 L80.0833343,18.3138349 L88.4868113,18.3138349 L88.4868113,14.8096514 L80.0833343,14.8096514 L80.0833343,11.177578 L89.63274,11.177578 L89.63274,7.6733945 L76.1871768,7.6733945 L76.1871768,25.5779817 Z M92.7140149,25.5779817 L107.560158,25.5779817 L107.560158,22.1249541 L97.756101,22.1249541 L107.560158,10.6660183 L107.560158,7.6733945 L93.0195958,7.6733945 L93.0195958,11.126422 L102.518071,11.126422 L92.7140149,22.5853578 L92.7140149,25.5779817 Z M111.456315,25.5779817 L115.377938,25.5779817 L115.377938,7.6733945 L111.456315,7.6733945 L111.456315,25.5779817 Z M119.834327,25.5779817 L123.705019,25.5779817 L123.705019,14.1957798 L132.337682,25.5779817 L135.673608,25.5779817 L135.673608,7.6733945 L131.802915,7.6733945 L131.802915,18.6975046 L123.450368,7.6733945 L119.834327,7.6733945 L119.834327,25.5779817 Z M139.951741,25.5779817 L153.52463,25.5779817 L153.52463,22.0737982 L143.847899,22.0737982 L143.847899,18.3138349 L152.251376,18.3138349 L152.251376,14.8096514 L143.847899,14.8096514 L143.847899,11.177578 L153.397305,11.177578 L153.397305,7.6733945 L139.951741,7.6733945 L139.951741,25.5779817 Z" id="LANDEZINE"></path>
                    <path d="M160.423804,22.4587156 L160.423804,8.92110092 L165.737932,8.92110092 C168.876348,8.92110092 170.859519,10.7196697 170.859519,13.4465321 L170.859519,13.485211 C170.859519,16.5215046 168.433504,18.1073394 165.468374,18.1073394 L162.792056,18.1073394 L162.792056,22.4587156 L160.423804,22.4587156 Z M162.792056,15.9606606 L165.545391,15.9606606 C167.336021,15.9606606 168.452758,14.9550092 168.452758,13.5432294 L168.452758,13.5045505 C168.452758,11.9187156 167.316767,11.0871193 165.545391,11.0871193 L162.792056,11.0871193 L162.792056,15.9606606 Z M172.860811,22.4587156 L172.860811,8.92110092 L178.868086,8.92110092 C180.562445,8.92110092 181.890977,9.42392661 182.757411,10.2748624 C183.469812,11.0097615 183.874148,12.0154128 183.874148,13.1951193 L183.874148,13.2337982 C183.874148,15.4578349 182.545616,16.7922569 180.658716,17.3337615 L184.297738,22.4587156 L181.505896,22.4587156 L178.194193,17.7398899 L175.229064,17.7398899 L175.229064,22.4587156 L172.860811,22.4587156 Z M175.229064,15.6318899 L178.694799,15.6318899 C180.389159,15.6318899 181.467388,14.7422752 181.467388,13.3691743 L181.467388,13.3304954 C181.467388,11.8800367 180.427667,11.0871193 178.675545,11.0871193 L175.229064,11.0871193 L175.229064,15.6318899 Z M192.787658,22.690789 C188.648029,22.690789 185.759916,19.5384587 185.759916,15.7285872 L185.759916,15.6899083 C185.759916,11.8800367 188.686537,8.68902752 192.826166,8.68902752 C196.965794,8.68902752 199.853907,11.8413578 199.853907,15.6512294 L199.853907,15.6899083 C199.853907,19.4997798 196.927286,22.690789 192.787658,22.690789 Z M192.826166,20.5054312 C195.502484,20.5054312 197.37013,18.3587523 197.37013,15.7285872 L197.37013,15.6899083 C197.37013,13.0597431 195.463976,10.8743853 192.787658,10.8743853 C190.11134,10.8743853 188.243693,13.0210642 188.243693,15.6512294 L188.243693,15.6899083 C188.243693,18.3200734 190.149848,20.5054312 192.826166,20.5054312 Z" id="PRO"></path>
                </g>
            </g>
        </g>
    </g>
</svg>