<?xml version="1.0" encoding="UTF-8"?>
<svg width="28px" height="74px" viewBox="0 0 28 74" version="1.1" xmlns="http://www.w3.org/2000/svg" xmlns:xlink="http://www.w3.org/1999/xlink">
    <!-- Generator: Sketch 46.2 (44496) - http://www.bohemiancoding.com/sketch -->
    <title>Page 1</title>
    <desc>Created with Sketch.</desc>
    <defs>
        <polygon id="path-1" points="0.000167966784 0.0002 27.35 0.0002 27.35 73.6251 0.000167966784 73.6251 0.000167966784 0.0002"></polygon>
    </defs>
    <g id="Design" stroke="none" stroke-width="1" fill="none" fill-rule="evenodd">
        <g id="Landing" transform="translate(-796.000000, -314.000000)">
            <g id="Page-1" transform="translate(796.000000, 314.000000)">
                <mask id="mask-2" fill="white">
                    <use xlink:href="#path-1"></use>
                </mask>
                <g id="Clip-2"></g>
                <path d="M27.3504,71.8091 C23.7844,71.5731 20.9244,70.5161 21.6074,65.1341 C22.2114,60.3711 22.1044,55.5071 22.1564,50.6861 C22.1994,46.7611 21.8374,46.5551 16.9914,46.9281 C16.6684,53.9981 16.2794,61.1191 16.1184,68.2441 C16.1004,69.0031 17.4274,69.7881 18.1184,70.5711 C18.8044,71.3511 19.4754,72.1441 20.7484,73.6251 C12.5294,72.8591 12.1734,72.5341 12.5064,66.1061 C12.7824,60.8051 13.1954,55.5121 13.5794,49.7351 C10.7964,49.2551 7.9094,49.3981 5.7514,48.2121 C3.4544,46.9501 0.3444,44.5241 0.2124,42.4401 C-0.2706,34.8321 0.1604,27.1441 0.6144,19.5091 C0.8464,15.6141 1.2344,11.6061 5.1684,9.0031 C6.0794,8.4011 5.8624,6.0831 6.1494,4.5521 C6.4254,3.0711 6.5034,1.5081 7.0894,0.1631 C7.2184,-0.1309 9.6914,-0.0409 10.0854,0.5451 C10.9334,1.8011 11.9364,3.8321 11.4664,4.9591 C6.3944,17.1431 13.1544,28.0011 15.2154,39.3391 C15.4434,40.5891 17.8714,42.2531 19.3364,42.3121 C23.9284,42.4971 25.4924,44.9141 25.5104,49.0031 C25.5334,53.8331 25.3264,58.6731 25.5914,63.4891 C25.7354,66.0961 26.6554,68.6611 27.3504,71.8091" id="Fill-1" fill="#231F20" mask="url(#mask-2)"></path>
            </g>
        </g>
    </g>
</svg>