<?xml version="1.0" encoding="UTF-8"?>
<svg width="1033px" height="672px" viewBox="0 0 1033 672" version="1.1" xmlns="http://www.w3.org/2000/svg" xmlns:xlink="http://www.w3.org/1999/xlink">
    <!-- Generator: Sketch 46.2 (44496) - http://www.bohemiancoding.com/sketch -->
    <title>Overlay</title>
    <desc>Created with Sketch.</desc>
    <defs>
        <polygon id="path-1" points="25.2591 0.563 0 0.563 0 76 25.2591 76"></polygon>
        <polygon id="path-3" points="19.186 0.631 19.186 33.641 0.0132 33.641 0.0132 0.631 19.186 0.631"></polygon>
    </defs>
    <g id="Design" stroke="none" stroke-width="1" fill="none" fill-rule="evenodd">
        <g id="Landing" transform="translate(-407.000000, -118.000000)">
            <g id="Header" transform="translate(-538.000000, -619.000000)">
                <g id="Overlay" transform="translate(945.000000, 733.000000)">
                    <polygon id="Header" fill-opacity="0.369536911" fill="#39DFA1" style="mix-blend-mode: multiply;" points="0 145.5 469 98.6813155 642.903223 387.308487 945.5 68.5 1071.02715 571.435659 287.027149 675.935659"></polygon>
                    <polygon id="Header" fill="#0045FA" style="mix-blend-mode: multiply;" opacity="0.282552083" transform="translate(673.287738, 168.837348) rotate(2.000000) translate(-673.287738, -168.837348) " points="489.560096 82.7221325 607.965585 6.31299679 857.01538 103.680598 642.734024 331.3617"></polygon>
                    <g id="Page-1" transform="translate(853.000000, 189.000000)" fill="#231F20">
                        <path d="M12.0535,1.1885 C13.4685,3.9625 15.2665,6.6125 16.2125,9.5385 C17.8845,14.7065 19.0645,20.0345 20.3965,25.3085 C21.3755,29.1875 20.8665,32.7675 19.8955,36.7925 C18.6215,42.0705 19.5415,47.9085 19.7325,53.4985 C19.9295,59.2845 20.0115,65.1185 20.8965,70.8155 C21.2785,73.2745 23.5505,75.4395 25.2115,78.1415 C22.9165,78.2885 20.4445,78.4455 17.5745,78.6285 C17.6665,67.9105 17.8125,57.7475 11.5495,48.7835 C8.6425,54.1175 7.8015,65.5425 9.1955,79.8565 L2.0765,79.8565 C2.9185,70.9455 4.6325,62.2095 4.3195,53.5455 C3.9925,44.5355 1.9465,35.5475 0.1855,26.6415 C-0.7375,21.9755 1.9145,12.2595 5.4495,9.0695 C6.6005,8.0305 7.0855,6.1225 7.5845,4.5205 C8.4735,1.6645 9.3145,-1.0185 12.0535,1.1885" id="Fill-1"></path>
                        <path d="M56.8005,78.1153 C52.2115,80.1363 51.5845,79.7213 51.4175,74.4743 C51.1685,66.6633 50.8425,58.8543 50.4735,51.0483 C50.3995,49.4583 49.9885,47.8853 49.7335,46.3033 C49.1985,46.2603 48.6645,46.2163 48.1295,46.1733 C47.2625,51.1223 46.0715,56.0423 45.6185,61.0283 C45.1685,65.9833 45.6125,71.0133 45.3395,75.9933 C45.2575,77.4773 44.0775,78.9013 43.4015,80.3523 C42.8435,80.1673 42.2865,79.9813 41.7295,79.7953 C42.5735,61.9523 43.4185,44.1083 44.2635,26.2653 C43.6985,26.1043 43.1345,25.9443 42.5705,25.7833 C41.2705,27.5523 40.1895,29.5623 38.5985,31.0113 C37.4335,32.0713 35.5985,32.3953 33.6325,32.3343 C38.9615,28.4193 39.1335,22.4773 40.4665,17.2103 C41.3395,13.7613 41.9485,10.6043 45.7385,8.9133 C46.7975,8.4403 47.6205,6.0223 47.4935,4.5913 C47.1895,1.1343 48.1065,-0.5197 51.8745,0.1443 C52.1015,0.5453 52.6205,1.0453 52.5265,1.3623 C51.2265,5.7403 51.6485,8.6413 56.6785,10.9293 C60.5015,12.6703 60.4125,22.7953 57.9475,27.1813 C56.6565,29.4783 55.6025,32.2563 55.5475,34.8403 C55.2925,46.9843 55.3625,59.1373 55.4705,71.2863 C55.4895,73.3773 56.2615,75.4623 56.8005,78.1153" id="Fill-3"></path>
                    </g>
                    <g id="Page-1" transform="translate(763.000000, 397.000000)">
                        <g id="Group-3" transform="translate(0.000000, 0.437000)">
                            <mask id="mask-2" fill="white">
                                <use xlink:href="#path-1"></use>
                            </mask>
                            <g id="Clip-2"></g>
                            <path d="M10.3891,76.0005 C6.6631,75.4425 4.4621,75.1145 1.9871,74.7445 C2.3551,69.5535 2.7611,64.7715 3.0011,59.9815 C3.1141,57.7515 4.5781,54.8515 0.5711,54.1285 C0.2001,54.0615 -0.0369,52.1265 0.0041,51.0725 C0.4291,40.2715 0.8941,29.4725 1.4101,18.6765 C1.6601,13.4645 1.9381,8.2485 2.4731,3.0625 C2.5661,2.1575 4.0041,1.3925 4.8211,0.5625 C5.4051,1.4145 6.3601,2.2105 6.4981,3.1285 C6.8141,5.2235 6.1741,7.5995 6.9161,9.4655 C8.8141,14.2405 11.9351,17.6455 17.8661,16.8835 C20.2921,16.5725 22.7921,16.8325 25.2591,16.8325 C25.2571,17.4145 25.2541,17.9955 25.2511,18.5775 C21.1361,18.8475 17.0201,19.1175 12.1911,19.4335 C15.4031,24.1005 20.7901,23.6865 25.0401,25.3975 C24.9751,25.8635 24.9091,26.3305 24.8431,26.7955 C21.2181,26.3355 17.5941,25.8755 13.2561,25.3255 C13.7551,28.9475 14.1821,32.4855 14.7431,36.0025 C15.5001,40.7555 16.4171,45.4845 17.1311,50.2435 C17.2911,51.3095 17.1461,52.5745 16.6951,53.5385 C16.1551,54.6935 14.4501,55.6165 14.4381,56.6525 C14.3791,61.9435 14.6041,67.2465 15.0031,72.5245 C15.0661,73.3395 16.5481,74.0465 17.9311,75.3135 L11.9661,75.3135 C11.2211,68.5395 10.4931,61.7025 9.6011,54.8875 C9.5751,54.6875 7.8191,54.7145 6.1601,54.5765 C7.6131,61.6775 1.6401,69.1705 10.3891,76.0005" id="Fill-1" fill="#231F20" mask="url(#mask-2)"></path>
                        </g>
                        <g id="Group-6" transform="translate(55.000000, 42.437000)">
                            <mask id="mask-4" fill="white">
                                <use xlink:href="#path-3"></use>
                            </mask>
                            <g id="Clip-5"></g>
                            <path d="M7.0542,27.645 C6.1482,29.973 5.5542,31.496 4.7902,33.456 C3.5542,33.033 2.2832,32.598 0.0132,31.821 C8.7462,29.386 1.4792,23.144 4.3942,19.246 C7.8522,14.62 5.7102,9.761 3.8462,4.972 C5.0662,6.473 6.2862,7.973 8.2882,10.436 C9.8142,7.168 11.0442,4.531 12.8642,0.631 C13.8252,2.233 15.6222,3.975 15.2702,4.839 C12.4752,11.698 14.7532,17.835 17.2772,24.054 C18.1272,26.151 18.8492,28.36 19.1732,30.584 C19.3132,31.547 18.2962,32.679 17.4792,33.641 C17.4982,24.882 10.4232,30.447 7.0542,27.645" id="Fill-4" fill="#231F20" mask="url(#mask-4)"></path>
                        </g>
                    </g>
                </g>
            </g>
        </g>
    </g>
</svg>