<?xml version="1.0" encoding="UTF-8"?>
<svg width="167px" height="144px" viewBox="0 0 167 144" version="1.1" xmlns="http://www.w3.org/2000/svg" xmlns:xlink="http://www.w3.org/1999/xlink">
    <!-- Generator: Sketch 46.2 (44496) - http://www.bohemiancoding.com/sketch -->
    <title>Page 1</title>
    <desc>Created with Sketch.</desc>
    <defs>
        <polygon id="path-1" points="0 143.484848 166.923 143.484848 166.923 0.566757576 0 0.566757576"></polygon>
        <polygon id="path-3" points="166.923 90.1816788 166.923 0.566757576 0 0.566757576 0 90.1816788 166.923 90.1816788"></polygon>
    </defs>
    <g id="Design" stroke="none" stroke-width="1" fill="none" fill-rule="evenodd">
        <g id="Registration---Step-3" transform="translate(-136.000000, -269.000000)">
            <g id="Complete" transform="translate(32.000000, 192.000000)">
                <g id="Page-1" transform="translate(104.000000, 76.000000)">
                    <polygon id="Fill-1" fill="#FFFFFF" points="6.7473 116.898494 145.4868 142.011767 162.6093 46.8007667 23.8653 21.6874939"></polygon>
                    <path d="M10.8666,113.899079 L142.9371,137.806806 L158.8086,49.5446242 L26.7381,25.6323818 L10.8666,113.899079 Z M143.3556,138.416352 L10.2636,114.318988 L26.3196,25.0273515 L159.4116,49.1202 L143.3556,138.416352 Z" id="Fill-3" fill="#576373"></path>
                    <path d="M105.7491,131.073361 L142.9371,137.805452 L143.5626,134.310724 L106.3791,127.578633 L105.7491,131.073361 Z M143.3556,138.414997 L105.1461,131.497785 L105.9561,126.969088 L144.1701,133.8863 L143.3556,138.414997 Z" id="Fill-4" fill="#576373"></path>
                    <path d="M105.7491,131.073361 L142.9371,137.805452 L143.5626,134.310724 L106.3791,127.578633 L105.7491,131.073361 Z M143.3556,138.414997 L105.1461,131.497785 L105.9561,126.969088 L144.1701,133.8863 L143.3556,138.414997 Z" id="Fill-5" fill="#576373"></path>
                    <path d="M105.7491,131.073361 L142.9371,137.805452 L145.0071,126.282785 L107.8191,119.550694 L105.7491,131.073361 Z M143.3556,138.414997 L105.1461,131.497785 L107.4006,118.941148 L145.6101,125.862876 L143.3556,138.414997 Z" id="Fill-6" fill="#576373"></path>
                    <path d="M107.1927,123.04813 L126.6102,126.565433 L127.2402,123.066191 L107.8227,119.553403 L107.1927,123.04813 Z M127.0332,127.170464 L106.5897,123.472555 L107.3997,118.943858 L127.8477,122.646282 L127.0332,127.170464 Z" id="Fill-7" fill="#576373"></path>
                    <path d="M105.7491,131.073361 L118.6056,133.403179 L120.6801,121.880512 L107.8191,119.550694 L105.7491,131.073361 Z M119.0241,134.008209 L105.1461,131.497785 L107.4006,118.941148 L121.2831,121.456088 L119.0241,134.008209 Z" id="Fill-8" fill="#576373"></path>
                    <path d="M112.31235,132.264006 L125.16885,134.593824 L127.23885,123.066642 L114.38235,120.736824 L112.31235,132.264006 Z M125.58735,135.194339 L111.70485,132.683915 L113.96385,120.131794 L127.84635,122.646733 L125.58735,135.194339 Z" id="Fill-9" fill="#576373"></path>
                    <polygon id="Fill-10" fill="#BCC1C7" points="128.0448 125.070467 144.0693 127.973709 144.2628 126.903618 128.2338 124.000376"></polygon>
                    <polygon id="Fill-11" fill="#BCC1C7" points="127.3725 128.800885 143.4015 131.704127 143.496 131.171339 127.4715 128.268097"></polygon>
                    <polygon id="Fill-12" fill="#BCC1C7" points="127.18215 129.85743 143.21115 132.760673 143.30565 132.218855 127.28115 129.315612"></polygon>
                    <polygon id="Fill-13" fill="#BCC1C7" points="113.2137 130.385703 118.2852 131.302279 118.3797 130.769491 113.3127 129.852915"></polygon>
                    <polygon id="Fill-14" fill="#BCC1C7" points="113.84955 126.866594 118.91655 127.787685 119.01555 127.250382 113.94855 126.333806"></polygon>
                    <polygon id="Fill-15" fill="#BCC1C7" points="113.0274 131.438185 118.0944 132.354761 118.1889 131.821973 113.1264 130.900882"></polygon>
                    <polygon id="Fill-16" fill="#BCC1C7" points="131.02965 127.48833 140.43015 129.195058 140.62365 128.120452 131.21865 126.413724"></polygon>
                    <polygon id="Fill-17" fill="#BCC1C7" points="108.06615 121.953658 112.64715 122.784445 112.84065 121.714355 108.25515 120.883567"></polygon>
                    <polygon id="Fill-18" fill="#BCC1C7" points="107.4222 125.302094 112.0032 126.132882 112.1967 125.058276 107.6112 124.227488"></polygon>
                    <polygon id="Fill-19" fill="#BCC1C7" points="107.1711 126.695921 111.7521 127.526709 111.9456 126.452103 107.3646 125.621315"></polygon>
                    <polygon id="Fill-20" fill="#FBFBFB" points="21.35655 107.509688 27.26955 74.6303545 78.89355 83.972203 72.98055 116.851536"></polygon>
                    <path d="M72.34605,115.940379 L77.98005,84.6097424 L27.89955,75.5433182 L22.26555,106.873955 L72.34605,115.940379 Z M79.80255,83.3409848 L73.61505,117.7645 L20.44305,108.138197 L26.63055,73.7146818 L79.80255,83.3409848 Z" id="Fill-21" fill="#415064"></path>
                    <path d="M65.21715,115.447776 L54.77265,113.555927 L65.21715,115.447776 Z" id="Fill-22" fill="#FBFBFB"></path>
                    <polygon id="Fill-23" fill="#B3B9C1" points="54.6345 114.330276 65.079 116.222124 65.3535 114.677942 54.9135 112.781579"></polygon>
                    <path d="M71.13015,82.5648303 L60.68115,80.6729818 L71.13015,82.5648303 Z" id="Fill-24" fill="#FBFBFB"></path>
                    <polygon id="Fill-25" fill="#B3B9C1" points="60.54345 81.4513939 70.99245 83.3432424 71.26695 81.7945455 60.82245 79.902697"></polygon>
                    <path d="M39.93705,110.876185 L29.49255,108.984336 L39.93705,110.876185 Z" id="Fill-26" fill="#FBFBFB"></path>
                    <polygon id="Fill-27" fill="#B3B9C1" points="29.35035 109.754621 39.79935 111.64647 40.07835 110.102288 29.62935 108.205924"></polygon>
                    <path d="M45.85005,77.9932394 L35.40555,76.1013909 L45.85005,77.9932394 Z" id="Fill-28" fill="#FBFBFB"></path>
                    <polygon id="Fill-29" fill="#B3B9C1" points="35.26335 76.8757394 45.71235 78.7630727 45.99135 77.2188909 35.54235 75.3315576"></polygon>
                    <path d="M22.4775,101.265685 L24.363,90.7860182 L22.4775,101.265685 Z" id="Fill-30" fill="#FBFBFB"></path>
                    <polygon id="Fill-31" fill="#B3B9C1" points="21.70395 101.131585 23.25195 101.407009 25.13295 90.9273424 23.58945 90.647403"></polygon>
                    <path d="M76.1076,99.4736212 L77.9931,88.9894394 L76.1076,99.4736212 Z" id="Fill-32" fill="#FBFBFB"></path>
                    <polygon id="Fill-33" fill="#B3B9C1" points="75.33405 99.3313939 76.88205 99.6113333 78.76305 89.1316667 77.21505 88.8517273"></polygon>
                    <polygon id="Fill-34" fill="#415064" points="24.48225 85.6735121 28.99575 86.4907545 29.27925 84.9375424 24.76125 84.1203"></polygon>
                    <polygon id="Fill-35" fill="#415064" points="51.60825 90.5823848 35.12475 87.6023848 35.40375 86.0491727 51.88725 89.0291727"></polygon>
                    <path d="M47.13795,112.33503 L49.18095,100.970394 L47.13795,112.33503 Z" id="Fill-36" fill="#FBFBFB"></path>
                    <polygon id="Fill-37" fill="#415064" points="46.36845 112.192803 47.91195 112.472742 49.95495 101.112621 48.41145 100.832682"></polygon>
                    <path d="M50.28885,94.8085667 L53.10585,79.1455061 L50.28885,94.8085667 Z" id="Fill-38" fill="#FBFBFB"></path>
                    <polygon id="Fill-39" fill="#415064" points="49.51935 94.6663394 51.06735 94.9462788 53.87985 79.2877333 52.33635 79.0077939"></polygon>
                    <g id="Group-320" transform="translate(0.000000, 0.948845)">
                        <path d="M41.70555,98.6683576 L42.27255,98.7676909 C42.88455,95.3768121 46.13355,93.1147212 49.51755,93.7242667 L49.62105,93.1508424 C45.92205,92.4871152 42.37155,94.9614182 41.70555,98.6683576" id="Fill-40" fill="#415064"></path>
                        <polygon id="Fill-42" fill="#415064" points="48.3147 100.414367 48.4092 99.8815788 41.7042 98.667003 41.6097 99.1997909"></polygon>
                        <path d="M33.91605,93.3770515 L34.01505,92.8081424 C30.63105,92.1940818 28.37655,88.9341424 28.98855,85.5432636 L28.42155,85.4349 C27.75105,89.1463545 30.21705,92.7133242 33.91605,93.3770515" id="Fill-44" fill="#415064"></path>
                        <polygon id="Fill-46" fill="#415064" points="35.65395 86.7456485 35.12745 86.6508303 33.91695 93.3784061 34.44345 93.4732242"></polygon>
                        <polygon id="Fill-48" fill="#2D3C50" points="70.54425 106.834461 75.05775 107.656218 74.77875 109.2004 70.26525 108.387673"></polygon>
                        <polygon id="Fill-50" fill="#415064" points="47.93445 102.742379 64.41795 105.726894 64.13895 107.280106 47.65545 104.295591"></polygon>
                        <path d="M65.6271,98.9988667 L65.5236,99.5677758 C68.9121,100.181836 71.1666,103.441776 70.5546,106.83717 L71.1216,106.941018 C71.7876,103.229564 69.3261,99.6671091 65.6271,98.9988667" id="Fill-52" fill="#415064"></path>
                        <polygon id="Fill-54" fill="#415064" points="63.88695 105.630721 64.41795 105.725539 65.62845 98.9979636 65.09745 98.9031455"></polygon>
                        <path d="M123.5448,51.1138788 L119.5848,73.143303" id="Fill-56" fill="#FBFBFB"></path>
                        <polygon id="Fill-58" fill="#415064" points="118.8072 73.0015273 122.7672 50.972103 124.3152 51.2565576 120.3552 73.2814667"></polygon>
                        <path d="M95.23305,46.7883636 L145.31355,55.8547879 L140.08005,84.9594545 L89.99955,75.8930303 L95.23305,46.7883636 Z M141.34905,86.7880909 L141.62805,85.2439091 L147.13605,54.5860303 L93.96405,44.9597273 L88.45155,75.6176061 L88.17705,77.1617879 L141.34905,86.7880909 Z" id="Fill-60" fill="#415064"></path>
                        <path d="M93.8115,50.2582576 L91.647,62.2911364" id="Fill-62" fill="#FBFBFB"></path>
                        <polygon id="Fill-64" fill="#B3B9C1" points="90.87345 62.1502636 93.03795 50.1219 94.58595 50.3973242 92.42145 62.430203"></polygon>
                        <path d="M118.3527,50.1747273 L107.9082,48.2828788" id="Fill-66" fill="#FBFBFB"></path>
                        <polygon id="Fill-68" fill="#B3B9C1" points="107.766 49.0545182 108.045 47.5058212 118.4895 49.3976697 118.215 50.9463667"></polygon>
                        <path d="M140.8833,54.2532636 L130.4388,52.3614152" id="Fill-70" fill="#FBFBFB"></path>
                        <polygon id="Fill-72" fill="#B3B9C1" points="130.29705 53.1330545 130.57605 51.5843576 141.02055 53.4762061 140.74605 55.024903"></polygon>
                        <path d="M142.6653,75.0080606 L144.5463,64.5283939" id="Fill-74" fill="#FBFBFB"></path>
                        <polygon id="Fill-76" fill="#B3B9C1" points="141.89175 74.8712515 143.77725 64.3915848 145.32525 64.6670091 143.43975 75.1511909"></polygon>
                        <polygon id="Fill-78" fill="#2D3C50" points="116.118 70.9159788 120.6315 71.7332212 120.3525 73.2819182 115.839 72.4691909"></polygon>
                        <polygon id="Fill-80" fill="#415064" points="90.91755 66.3525152 109.98855 69.8066061 109.70955 71.355303 90.63855 67.9057273"></polygon>
                        <path d="M111.2004,63.0808364 L111.0969,63.6497455 C114.4809,64.2638061 116.7354,67.5192303 116.1279,70.9146242 L116.6949,71.0229879 C117.3609,67.3115333 114.8949,63.7445636 111.2004,63.0808364" id="Fill-82" fill="#415064"></path>
                        <polygon id="Fill-84" fill="#415064" points="109.46025 69.7077242 109.99125 69.8025424 111.20175 63.0794818 110.67075 62.9846636"></polygon>
                        <polygon id="Fill-86" fill="#415064" points="124.3773 72.4109455 119.8638 71.5891879 119.5848 73.1424 124.0983 73.9641576"></polygon>
                        <polygon id="Fill-88" fill="#415064" points="143.15085 75.810403 130.50135 73.5212212 130.22235 75.0699182 142.87185 77.3636152"></polygon>
                        <path d="M131.7141,66.7931939 L131.6106,67.362103 C128.2266,66.7480424 124.9776,69.0146485 124.3656,72.4100424 L123.7986,72.3061939 C124.4646,68.5947394 128.0151,66.1249515 131.7141,66.7931939" id="Fill-90" fill="#415064"></path>
                        <polygon id="Fill-92" fill="#415064" points="131.03505 73.6146848 130.50405 73.5198667 131.71455 66.7922909 132.24555 66.8871091"></polygon>
                        <g id="Group-96">
                            <mask id="mask-2" fill="white">
                                <use xlink:href="#path-1"></use>
                            </mask>
                            <g id="Clip-95"></g>
                            <polygon id="Fill-94" fill="#FFFFFF" mask="url(#mask-2)" points="130.58685 143.484848 -0.00315 90.1789697 36.33435 0.566757576 166.92435 53.8681212"></polygon>
                        </g>
                        <g id="Group-99">
                            <mask id="mask-4" fill="white">
                                <use xlink:href="#path-3"></use>
                            </mask>
                            <g id="Clip-98"></g>
                            <polygon id="Fill-97" fill="#FFFFFF" mask="url(#mask-4)" points="36.33525 0.564951515 -0.00225 90.1816788 166.92525 53.8708303"></polygon>
                        </g>
                        <path d="M4.64625,88.0992909 L128.95875,138.840564 L162.63675,55.7662909 L38.32875,5.02501818 L4.64625,88.0992909 Z M129.24225,139.522352 L3.97125,88.3837455 L38.04525,4.3432303 L163.31625,55.4773212 L129.24225,139.522352 Z" id="Fill-100" fill="#576373"></path>
                        <path d="M93.95415,124.551012 L128.95515,138.841467 L130.29165,135.549921 L95.29065,121.259467 L93.95415,124.551012 Z M129.24315,139.518739 L93.27465,124.839982 L95.00265,120.577679 L130.97115,135.260952 L129.24315,139.518739 Z" id="Fill-102" fill="#576373"></path>
                        <path d="M93.95415,124.551012 L128.95515,138.841467 L130.29165,135.549921 L95.29065,121.259467 L93.95415,124.551012 Z M129.24315,139.518739 L93.27465,124.839982 L95.00265,120.577679 L130.97115,135.260952 L129.24315,139.518739 Z" id="Fill-104" fill="#FFA700"></path>
                        <path d="M93.95415,124.551012 L128.95515,138.841467 L133.35165,127.996073 L98.35065,113.710133 L93.95415,124.551012 Z M129.24315,139.518739 L93.27465,124.839982 L98.06715,113.02383 L134.03115,127.707103 L129.24315,139.518739 Z" id="Fill-106" fill="#FFA700"></path>
                        <path d="M97.0173,117.00213 L115.2963,124.461161 L116.6283,121.169615 L98.3493,113.710585 L97.0173,117.00213 Z M115.5798,125.142948 L96.3378,117.286585 L98.0658,113.024282 L117.3078,120.880645 L115.5798,125.142948 Z" id="Fill-108" fill="#576373"></path>
                        <path d="M93.95415,124.551012 L106.05465,129.495103 L110.45565,118.645194 L98.35065,113.710133 L93.95415,124.551012 Z M106.34265,130.172376 L93.27465,124.839982 L98.06715,113.02383 L111.13065,118.360739 L106.34265,130.172376 Z" id="Fill-110" fill="#576373"></path>
                        <path d="M100.13085,127.073176 L112.23135,132.017267 L116.63235,121.167358 L104.52735,116.232297 L100.13085,127.073176 Z M112.51935,132.694539 L99.45135,127.35763 L104.24385,115.545994 L117.30735,120.882903 L112.51935,132.694539 Z" id="Fill-112" fill="#576373"></path>
                        <polygon id="Fill-114" fill="#BCC1C7" points="132.08985 129.454015 117.00135 123.295348 117.41085 122.283955 132.49935 128.442621"></polygon>
                        <polygon id="Fill-116" fill="#BCC1C7" points="130.66605 132.968609 115.57755 126.809942 115.78455 126.304245 130.86855 132.462912"></polygon>
                        <polygon id="Fill-118" fill="#BCC1C7" points="130.26375 133.956073 115.17525 127.797406 115.38225 127.291709 130.46625 133.454891"></polygon>
                        <polygon id="Fill-120" fill="#BCC1C7" points="106.173 127.372982 101.3985 125.422436 101.6055 124.921255 106.3755 126.8718"></polygon>
                        <polygon id="Fill-122" fill="#BCC1C7" points="107.5158 124.06157 102.7413 122.111024 102.9483 121.609842 107.7183 123.560388"></polygon>
                        <polygon id="Fill-124" fill="#BCC1C7" points="105.77115 128.364961 101.00115 126.414415 101.20365 125.913233 105.97365 127.859264"></polygon>
                        <polygon id="Fill-126" fill="#BCC1C7" points="128.27745 129.895145 119.42595 126.278509 119.83545 125.276145 128.68695 128.883752"></polygon>
                        <polygon id="Fill-128" fill="#BCC1C7" points="102.40695 117.870845 98.09595 116.109936 98.50545 115.103058 102.81645 116.859452"></polygon>
                        <polygon id="Fill-130" fill="#BCC1C7" points="101.08845 121.01023 96.77745 119.249321 97.18695 118.242442 101.49795 120.003352"></polygon>
                        <polygon id="Fill-132" fill="#BCC1C7" points="100.55925 122.320076 96.24825 120.559167 96.65325 119.552288 100.96875 121.313197"></polygon>
                        <polygon id="Fill-134" fill="#FBFBFB" points="44.35965 19.9706212 114.79365 48.7231061 95.02515 97.4777121 24.59115 68.7252273"></polygon>
                        <path d="M25.61265,68.2922242 L94.59765,96.4487091 L113.77215,49.152497 L44.78715,20.9960121 L25.61265,68.2922242 Z M95.45265,98.4985879 L23.56965,69.1591333 L43.92765,18.9416182 L115.81515,48.2855879 L95.45265,98.4985879 Z" id="Fill-136" fill="#1531FF"></path>
                        <polygon id="Fill-138" fill="#FBFBFB" points="122.8986 51.4358091 153.7416 64.0285667 133.9776 112.783173 103.1301 100.19493"></polygon>
                        <path d="M104.15385,99.7574121 L133.54785,111.75417 L152.72235,64.4624727 L123.32835,52.4612 L104.15385,99.7574121 Z M134.40285,113.808564 L102.11085,100.624321 L122.46885,50.4068061 L154.76535,63.5910485 L134.40285,113.808564 Z" id="Fill-140" fill="#1531FF"></path>
                        <path d="M35.676,41.3909515 L56.34,49.8252545" id="Fill-142" fill="#FBFBFB"></path>
                        <polygon id="Fill-144" fill="#415064" points="56.0448 50.5580636 35.3763 42.1237606 35.9703 40.6608515 56.6388 49.0996697"></polygon>
                        <path d="M81.0036,34.0759545 L72.5976,54.8140455" id="Fill-146" fill="#FBFBFB"></path>
                        <polygon id="Fill-148" fill="#415064" points="71.86725 54.5133364 80.27325 33.7752455 81.72675 34.3712455 73.32075 55.1093364"></polygon>
                        <polygon id="Fill-150" fill="#415064" points="70.8498 35.2137727 79.8903 38.9026515 79.2963 40.3700758 70.2558 36.6766818"></polygon>
                        <polygon id="Fill-152" fill="#415064" points="68.8923 40.0418242 77.9328 43.730703 77.3433 45.1936121 68.2983 41.5002182"></polygon>
                        <polygon id="Fill-154" fill="#415064" points="66.93435 44.8698758 75.97485 48.5587545 75.38535 50.0216636 66.34485 46.3282697"></polygon>
                        <polygon id="Fill-156" fill="#415064" points="64.8711 49.9584515 73.9116 53.6473303 73.3221 55.1102394 64.2771 51.4168455"></polygon>
                        <path d="M50.55795,14.4458818 L71.22195,22.8801848" id="Fill-158" fill="#FBFBFB"></path>
                        <polygon id="Fill-160" fill="#415064" points="70.92675 23.6125424 50.25825 15.1782394 50.85225 13.7198455 71.51625 22.1541485"></polygon>
                        <polygon id="Fill-162" fill="#415064" points="47.2995 22.0209515 50.6925 13.6498606 52.146 14.2458606 48.753 22.6169515"></polygon>
                        <polygon id="Fill-164" fill="#415064" points="66.67065 29.9269818 70.06365 21.5558909 71.51715 22.1518909 68.12415 30.5229818"></polygon>
                        <polyline id="Fill-166" fill="#FBFBFB" points="95.1165 40.6902 88.4835 57.0531091 100.8855 62.1145939"></polyline>
                        <polygon id="Fill-168" fill="#415064" points="100.5876 62.8424364 87.4611 57.4829515 94.3911 40.393103 95.8446 40.9845879 89.5041 56.6160424 101.1771 61.3840424"></polygon>
                        <path d="M73.1151,31.7082091 L55.7496,74.5434515" id="Fill-170" fill="#FBFBFB"></path>
                        <polygon id="Fill-172" fill="#415064" points="56.4732 74.8446121 55.0242 74.2486121 72.3897 31.4133697 73.8387 32.0048545"></polygon>
                        <path d="M94.15395,101.697573 L22.31595,72.3761788" id="Fill-174" fill="#FBFBFB"></path>
                        <polygon id="Fill-176" fill="#415064" points="22.16925 72.7414545 22.46175 72.0145152 94.30425 101.335909 94.00725 102.062848"></polygon>
                        <path d="M41.5494,17.9731182 L21.2499,68.0416333" id="Fill-178" fill="#FBFBFB"></path>
                        <polygon id="Fill-180" fill="#415064" points="21.61125 68.1910848 20.88675 67.8976 41.18625 17.8245697 41.91075 18.1180545"></polygon>
                        <path d="M81.55035,91.975097 L91.38285,95.9890667" id="Fill-182" fill="#FBFBFB"></path>
                        <polygon id="Fill-184" fill="#B3B9C1" points="91.08675 96.7191667 81.25425 92.705197 81.84375 91.246803 91.68075 95.2607727"></polygon>
                        <path d="M64.2996,84.9332667 L74.1366,88.9517515" id="Fill-186" fill="#FBFBFB"></path>
                        <polygon id="Fill-188" fill="#B3B9C1" points="73.836 89.6777879 64.0035 85.6638182 64.5975 84.2054242 74.43 88.2193939"></polygon>
                        <path d="M28.70415,70.4044121 L39.99465,75.0143818" id="Fill-190" fill="#FBFBFB"></path>
                        <polygon id="Fill-192" fill="#B3B9C1" points="39.6972 75.7440303 28.4112 71.1340606 29.0007 69.6711515 40.2867 74.2811212"></polygon>
                        <path d="M33.68745,46.2944061 L29.68695,56.1600121" id="Fill-194" fill="#FBFBFB"></path>
                        <polygon id="Fill-196" fill="#B3B9C1" points="30.41145 56.4580121 28.96245 55.8620121 32.95845 45.9964061 34.41195 46.5878909"></polygon>
                        <path d="M42.3162,25.0149485 L38.3157,34.8805545" id="Fill-198" fill="#FBFBFB"></path>
                        <polygon id="Fill-200" fill="#B3B9C1" points="39.03795 35.1785545 37.58895 34.5870697 41.58945 24.7214636 43.03845 25.3084333"></polygon>
                        <path d="M110.1042,82.9931061 L106.1037,92.8632273" id="Fill-202" fill="#FBFBFB"></path>
                        <polygon id="Fill-204" fill="#B3B9C1" points="106.83 93.1567121 105.381 92.5607121 109.377 82.7041364 110.8305 83.2911061"></polygon>
                        <path d="M140.94945,95.5818 L136.94895,105.451921" id="Fill-206" fill="#FBFBFB"></path>
                        <polygon id="Fill-208" fill="#B3B9C1" points="137.673 105.74947 136.224 105.15347 140.22 95.2923788 141.6735 95.8793485"></polygon>
                        <path d="M119.7828,59.1210485 L115.7823,68.9866545" id="Fill-210" fill="#FBFBFB"></path>
                        <polygon id="Fill-212" fill="#B3B9C1" points="116.50905 69.2801394 115.06005 68.6886545 119.06055 58.8230485 120.50955 59.4145333"></polygon>
                        <path d="M150.62805,71.7097424 L146.62755,81.5798636" id="Fill-214" fill="#FBFBFB"></path>
                        <polygon id="Fill-216" fill="#B3B9C1" points="147.35205 81.8733485 145.90305 81.2773485 149.90355 71.4162576 151.35255 72.0032273"></polygon>
                        <path d="M112.56705,54.2135303 L108.56655,64.0791364" id="Fill-218" fill="#FBFBFB"></path>
                        <polygon id="Fill-220" fill="#B3B9C1" points="109.29105 64.3726212 107.84205 63.7811364 111.84255 53.9155303 113.29155 54.5025"></polygon>
                        <path d="M62.9244,27.5502061 L53.0919,23.5362364" id="Fill-222" fill="#FBFBFB"></path>
                        <polygon id="Fill-224" fill="#B3B9C1" points="62.6301 28.277597 52.7931 24.2636273 53.3871 22.8052333 63.2196 26.819203"></polygon>
                        <path d="M109.548,46.5811182 L99.7155,42.5671485" id="Fill-226" fill="#FBFBFB"></path>
                        <polygon id="Fill-228" fill="#B3B9C1" points="109.2537 47.3085091 99.4167 43.2945394 100.0107 41.8361455 109.8432 45.8501152"></polygon>
                        <path d="M138.58515,57.8423576 L128.75265,53.8238727" id="Fill-230" fill="#FBFBFB"></path>
                        <polygon id="Fill-232" fill="#B3B9C1" points="138.2904 58.5697485 128.4534 54.5512636 129.0474 53.0928697 138.8799 57.1113545"></polygon>
                        <path d="M129.2706,110.864685 L119.4381,106.8462" id="Fill-234" fill="#FBFBFB"></path>
                        <polygon id="Fill-236" fill="#B3B9C1" points="128.97405 111.592076 119.13705 107.573591 119.73105 106.115197 129.56355 110.133682"></polygon>
                        <polygon id="Fill-238" fill="#415064" points="141.81705 63.2790515 143.54505 59.0167485 145.00305 59.6082333 143.27505 63.8705364"></polygon>
                        <polygon id="Fill-240" fill="#415064" points="133.15995 84.6289455 139.47345 69.0652182 140.92695 69.6612182 134.61795 85.2249455"></polygon>
                        <path d="M112.8726,75.7530606 L123.5331,80.1056667" id="Fill-242" fill="#FBFBFB"></path>
                        <polygon id="Fill-244" fill="#415064" points="123.23475 80.8371212 112.57425 76.4845152 113.16825 75.0261212 123.82875 79.3787273"></polygon>
                        <path d="M129.31245,82.4639303 L144.00045,88.4600515" id="Fill-246" fill="#FBFBFB"></path>
                        <polygon id="Fill-248" fill="#415064" points="143.7066 89.1928606 129.0186 83.1967394 129.6081 81.7383455 144.2961 87.7344667"></polygon>
                        <path d="M78.6501,72.8430455 L58.8681,64.7699545" id="Fill-250" fill="#FBFBFB"></path>
                        <polygon id="Fill-252" fill="#415064" points="58.63095 65.3515061 78.41295 73.424597 78.88545 72.2596879 59.10345 64.1820818"></polygon>
                        <path d="M101.2689,82.0760788 L84.4254,75.2040182" id="Fill-254" fill="#FBFBFB"></path>
                        <polygon id="Fill-256" fill="#415064" points="84.1896 75.7837636 101.0331 82.6558242 101.5056 81.4954303 84.6621 74.6143394"></polygon>
                        <path d="M81.45405,65.9289939 L81.23805,66.4617818 C84.42405,67.7621455 85.95855,71.4239333 84.66255,74.6206606 L85.19805,74.8373879 C86.61105,71.3426606 84.93255,67.3467515 81.45405,65.9289939" id="Fill-258" fill="#415064"></path>
                        <polygon id="Fill-260" fill="#415064" points="78.38865 72.0578606 78.88815 72.2610424 81.45315 65.9308 80.95365 65.723103"></polygon>
                        <path d="M126.39465,73.0457758 L126.17865,73.5785636 C129.36465,74.8789273 130.89915,78.5407152 129.60315,81.7329273 L130.13865,81.9541697 C131.55165,78.4594424 129.87315,74.4635333 126.39465,73.0457758" id="Fill-262" fill="#415064"></path>
                        <polygon id="Fill-264" fill="#415064" points="123.32925 79.1746424 123.82875 79.3778242 126.39375 73.0475818 125.89425 72.8444"></polygon>
                        <path d="M133.15995,66.4888727 L133.69545,66.7056 C134.99145,63.5088727 138.63645,61.9692061 141.82245,63.2650545 L142.03845,62.7322667 C138.55995,61.3145091 134.57745,62.9986606 133.15995,66.4888727" id="Fill-266" fill="#415064"></path>
                        <polygon id="Fill-268" fill="#415064" points="139.26825 69.5623364 139.47075 69.0656697 133.16175 66.4875182 132.95925 66.9887"></polygon>
                        <polygon id="Fill-270" fill="#415064" points="112.4793 99.6734303 110.7513 103.935733 109.2933 103.339733 111.0213 99.0774303"></polygon>
                        <polygon id="Fill-272" fill="#415064" points="121.1364 78.3194727 114.8229 93.8832 113.3694 93.2917152 119.6784 77.7234727"></polygon>
                        <path d="M121.1364,96.4590939 L120.6009,96.2423667 C119.3049,99.4390939 115.6599,100.983276 112.4739,99.6829121 L112.2579,100.2157 C115.7364,101.633458 119.7189,99.9493061 121.1364,96.4590939" id="Fill-274" fill="#415064"></path>
                        <polygon id="Fill-276" fill="#415064" points="115.0281 93.3860818 114.8256 93.8827485 121.1346 96.4609 121.3371 95.9597182"></polygon>
                        <polygon id="Fill-278" fill="#415064" points="53.4519 52.7673273 55.1799 48.5050242 56.6379 49.1010242 54.9099 53.3633273"></polygon>
                        <polygon id="Fill-280" fill="#415064" points="43.80165 76.5689485 51.10515 58.5534939 52.56315 59.1494939 45.25965 77.1604333"></polygon>
                        <path d="M44.7948,55.9771485 L45.3303,56.1983909 C46.6263,52.9971485 50.2713,51.4574818 53.4573,52.7578455 L53.6733,52.2205424 C50.1948,50.8027848 46.2123,52.4869364 44.7948,55.9771485" id="Fill-282" fill="#415064"></path>
                        <polygon id="Fill-284" fill="#415064" points="50.9031 59.0551273 51.1056 58.5539455 44.7966 55.9757939 44.5941 56.4814909"></polygon>
                        <polygon id="Fill-286" fill="#2D3C50" points="56.61585 44.9669515 54.88335 49.2292545 56.34135 49.8252545 58.06935 45.5629515"></polygon>
                        <polygon id="Fill-288" fill="#415064" points="63.80325 27.2373061 58.96125 39.184397 60.41925 39.7713667 65.26125 27.8287909"></polygon>
                        <path d="M52.65,36.6026333 L53.1855,36.8238758 C51.8895,40.020603 53.4285,43.6778758 56.61,44.9737242 L56.394,45.5155424 C52.9155,44.0932697 51.237,40.0928455 52.65,36.6026333" id="Fill-290" fill="#415064"></path>
                        <polygon id="Fill-292" fill="#415064" points="59.16465 38.679603 58.96215 39.1807848 52.64865 36.6026333 52.85565 36.1059667"></polygon>
                        <polygon id="Fill-294" fill="#415064" points="97.8498 65.4133636 99.5778 61.1510606 101.0358 61.7425455 99.3033 66.0048485"></polygon>
                        <polygon id="Fill-296" fill="#415064" points="92.5389 78.5131727 95.5044 71.1986273 96.9579 71.7946273 93.9924 79.1046576"></polygon>
                        <path d="M89.1927,68.6231848 L89.7282,68.8399121 C91.0242,65.6431848 94.6692,64.1035182 97.8552,65.4038818 L98.0712,64.8665788 C94.5927,63.4488212 90.6057,65.1329727 89.1927,68.6231848" id="Fill-298" fill="#415064"></path>
                        <polygon id="Fill-300" fill="#415064" points="95.301 71.7007121 95.5035 71.1995303 89.1945 68.6213788 88.992 69.1225606"></polygon>
                        <polygon id="Fill-302" fill="#415064" points="30.38715 79.8008939 20.87415 75.9404394 21.39165 74.6536212 30.90465 78.5231061"></polygon>
                        <polygon id="Fill-304" fill="#415064" points="29.39175 82.2657152 19.88325 78.4052606 20.39625 77.1184424 29.90925 80.9879273"></polygon>
                        <polygon id="Fill-306" fill="#415064" points="28.4733 84.5409 18.9603 80.6804455 19.4778 79.3936273 28.9908 83.2631121"></polygon>
                        <polygon id="Fill-308" fill="#415064" points="42.1515 84.584697 32.6385 80.7197273 33.156 79.4374242 42.669 83.3023939"></polygon>
                        <polygon id="Fill-310" fill="#415064" points="41.1561 87.0495182 31.6431 83.1845485 32.1606 81.9022455 41.6736 85.7672152"></polygon>
                        <polygon id="Fill-312" fill="#415064" points="40.23765 89.3251545 30.72465 85.4601848 31.24215 84.1778818 40.75515 88.0473667"></polygon>
                        <polygon id="Fill-314" fill="#415064" points="118.38105 41.9201273 108.87255 38.0596727 109.38555 36.7773697 118.89855 40.6423394"></polygon>
                        <polygon id="Fill-316" fill="#415064" points="117.3879 44.3849485 107.8749 40.5244939 108.3924 39.2376758 117.9054 43.1071606"></polygon>
                        <polygon id="Fill-318" fill="#415064" points="116.4672 46.6646485 106.9587 42.7996788 107.4717 41.5173758 116.9847 45.3823455"></polygon>
                    </g>
                </g>
            </g>
        </g>
    </g>
</svg>