<?xml version="1.0" encoding="UTF-8"?>
<svg width="235px" height="288px" viewBox="0 0 235 288" version="1.1" xmlns="http://www.w3.org/2000/svg" xmlns:xlink="http://www.w3.org/1999/xlink">
    <!-- Generator: Sketch 46.2 (44496) - http://www.bohemiancoding.com/sketch -->
    <title>Group 13</title>
    <desc>Created with Sketch.</desc>
    <defs>
        <polygon id="path-1" points="26.3555011 0.0004 0 0.0004 0 91.8434 26.3555011 91.8434"></polygon>
    </defs>
    <g id="Design" stroke="none" stroke-width="1" fill="none" fill-rule="evenodd">
        <g id="Landing" transform="translate(0.000000, -2440.000000)">
            <g id="Group-11" transform="translate(-260.000000, 1626.000000)">
                <g id="Group-13" transform="translate(184.000000, 814.000000)">
                    <polygon id="Line" fill="#0047FF" fill-rule="nonzero" points="206.389783 159.210884 191.849346 275.872527 282.150654 287.127473 310.610217 58.7891162 94.2626904 77.6322879 0.721517705 108.548438 29.2784823 194.951562 112.73731 167.367712"></polygon>
                    <g id="Page-1" transform="translate(273.000000, 0.000000)">
                        <mask id="mask-2" fill="white">
                            <use xlink:href="#path-1"></use>
                        </mask>
                        <g id="Clip-2"></g>
                        <path d="M3.4139,52.7242 C2.6999,40.6722 2.4039,28.6502 9.6609,18.0502 C10.6009,16.6772 10.7919,15.3742 10.5779,13.8402 C10.3649,12.3192 10.2719,10.7382 12.0779,10.0622 C12.6079,9.8632 13.4929,9.8762 13.8939,10.1952 C15.3509,11.3532 14.9379,12.8032 14.2409,14.2362 C13.9809,14.7712 13.8149,15.3522 13.1599,17.1072 C17.0789,14.5312 22.4209,16.9902 23.4139,11.6342 C24.1069,7.8972 23.5479,3.9282 24.0609,0.0002 C25.9579,4.5342 26.1799,9.3982 26.3539,14.1532 C26.4329,16.2712 23.5699,16.7702 21.8749,17.5732 C17.5479,19.6232 15.8729,22.2362 16.2099,27.5392 C17.2759,44.3652 15.0069,61.0872 13.1509,77.7932 C12.8569,80.4392 12.8859,83.1582 12.2559,85.7182 C11.6559,88.1542 12.5929,89.3672 15.6909,89.9332 C9.2889,92.0002 8.5639,91.4112 9.2269,86.0992 C10.2979,77.5092 11.1179,68.8952 11.2859,60.2352 C11.3189,58.5252 11.8689,56.6222 10.0839,54.5792 C8.1599,60.0992 8.5179,65.4212 7.7649,70.5492 C6.9199,76.3062 6.2729,82.1082 5.9219,87.9142 C5.6999,91.5882 4.1429,92.5142 -0.0001,91.4022 C3.9879,89.6712 3.7509,86.5322 4.0239,83.5552 C5.4189,68.3472 6.5399,53.1262 6.3269,37.3652 C2.9239,42.3612 5.7949,47.9862 3.4139,52.7242" id="Fill-1" fill="#231F20" mask="url(#mask-2)"></path>
                    </g>
                </g>
            </g>
        </g>
    </g>
</svg>