<?xml version="1.0" encoding="UTF-8"?>
<svg width="444px" height="153px" viewBox="0 0 444 153" version="1.1" xmlns="http://www.w3.org/2000/svg" xmlns:xlink="http://www.w3.org/1999/xlink">
    <!-- Generator: Sketch 46.2 (44496) - http://www.bohemiancoding.com/sketch -->
    <title>Section-2-Header</title>
    <desc>Created with Sketch.</desc>
    <defs>
        <polygon id="path-1" points="45.122 -0.000343945254 45.122 62.126353 8.96588238e-06 62.126353 8.96588238e-06 -0.000343945254 45.122 -0.000343945254"></polygon>
    </defs>
    <g id="Design" stroke="none" stroke-width="1" fill="none" fill-rule="evenodd">
        <g id="Landing" transform="translate(0.000000, -1778.000000)">
            <g id="Group-11" transform="translate(-260.000000, 1626.000000)">
                <g id="Section-2-Header">
                    <polygon id="Line" fill="#4A4A4A" fill-rule="nonzero" points="300.99543 304.535594 640.856277 280.052905 625.536453 187.701901 324.00457 210.964406 0.160155379 0.554504977 157.341074 280.052905 214.146261 248.107494"></polygon>
                    <path d="M698.433964,215.188013 C697.740964,210.420013 697.489964,205.647013 695.972964,201.050013 C696.172964,208.445013 696.496964,215.805013 699.221964,222.865013 C700.715964,226.735013 701.940964,230.712013 703.220964,234.663013 C704.636964,239.033013 702.772964,243.011013 698.460964,244.552013 C696.637964,245.203013 694.637964,245.001013 694.585964,247.999013 C694.537964,250.821013 695.713964,252.153013 699.256964,252.619013 C693.214964,254.165013 693.261964,254.160013 692.692964,249.254013 C692.564964,248.148013 693.466964,246.283013 691.211964,246.236013 C689.060964,246.192013 688.907964,247.823013 689.001964,249.365013 C689.261964,253.558013 687.368964,254.626013 683.060964,253.040013 C685.346964,251.909013 687.132964,250.950013 686.942964,248.080013 C686.712964,244.637013 683.914964,245.482013 682.255964,244.717013 C676.803964,242.204013 675.977964,240.647013 678.025964,235.221013 C679.548964,231.181013 681.357964,227.225013 682.552964,223.091013 C683.445964,220.005013 686.014964,216.418013 681.316964,213.773013 C680.730964,213.443013 681.040964,211.292013 681.145964,210.002013 C681.619964,204.205013 682.190964,198.415013 682.677964,192.618013 C682.803964,191.110013 682.901964,189.615013 683.876964,188.375013 C686.120964,185.520013 688.524964,182.843013 686.963964,178.640013 C686.381964,177.073013 687.105964,174.925013 689.227964,175.002013 C691.115964,175.070013 692.080964,177.037013 691.685964,178.722013 C690.843964,182.316013 692.667964,184.715013 694.733964,187.119013 C698.628964,191.655013 698.320964,197.338013 698.775964,202.719013 C699.123964,206.834013 699.994964,211.037013 698.433964,215.188013" id="Fill-1" fill="#231F20"></path>
                    <g id="Page-1" transform="translate(604.000000, 152.000000)">
                        <mask id="mask-2" fill="white">
                            <use xlink:href="#path-1"></use>
                        </mask>
                        <g id="Clip-2"></g>
                        <path d="M45.1225,57.957 C40.6015,59.84 38.8675,58.964 37.7855,55.76 C36.1415,50.891 34.1545,46.136 32.2795,41.346 C31.7445,39.98 31.3565,38.396 29.1915,39.096 C26.8895,39.84 27.2515,41.349 27.8015,43.061 C28.9695,46.694 30.0985,50.34 31.2045,53.992 C32.1885,57.24 32.1495,61.408 38.2205,59.896 C33.1055,63.434 30.7015,62.704 29.3215,58.124 C28.0285,53.835 26.5725,49.574 25.6335,45.206 C24.9865,42.195 23.6795,41.554 20.8045,42.073 C10.7525,43.892 10.7135,43.825 5.5825,35.139 C2.1305,29.294 0.9075,22.769 0.0525,16.158 C-0.0475,15.383 -0.0405,14.32 0.3985,13.795 C2.9755,10.722 3.0085,7.282 2.4045,3.584 C2.1785,2.193 2.2365,0.127 4.1165,0.004 C5.9055,-0.112 6.7435,2.124 6.3945,3.266 C3.7095,12.061 11.2245,16.542 14.4455,22.791 C15.8845,25.58 17.9915,28.016 19.6145,30.721 C21.7575,34.291 23.8045,37.51 28.8805,35.089 C30.9185,34.116 32.2065,35.585 32.9565,37.565 C34.7775,42.378 36.6375,47.18 38.6115,51.931 C39.6815,54.505 39.8945,57.835 45.1225,57.957" id="Fill-1" fill="#231F20" mask="url(#mask-2)"></path>
                    </g>
                </g>
            </g>
        </g>
    </g>
</svg>