<?xml version="1.0" encoding="UTF-8"?>
<svg width="288px" height="279px" viewBox="0 0 288 279" version="1.1" xmlns="http://www.w3.org/2000/svg" xmlns:xlink="http://www.w3.org/1999/xlink">
    <!-- Generator: Sketch 46.2 (44496) - http://www.bohemiancoding.com/sketch -->
    <title>Group 2</title>
    <desc>Created with Sketch.</desc>
    <defs>
        <polygon id="path-1" points="0 0.000191820052 0 78.6177 31.7387 78.6177 31.7387 0.000191820052"></polygon>
        <polygon id="path-3" points="4.63062748e-16 10.9608092 4.63062748e-16 0.224486872 14.3001364 0.224486872 14.3001364 10.9608092"></polygon>
    </defs>
    <g id="Design" stroke="none" stroke-width="1" fill="none" fill-rule="evenodd">
        <g id="Landing" transform="translate(0.000000, -541.000000)">
            <g id="Group-2" transform="translate(-69.000000, 540.000000)">
                <polygon id="Line" fill="#39DFA1" fill-rule="nonzero" points="174.99042 279.809152 356.345804 84.4565403 289.654196 22.5434597 173.00958 148.190848 116.055999 90.4294147 0.721517705 128.548438 29.2784823 214.951562 90.9440009 194.570585"></polygon>
                <g id="Page-1" transform="translate(90.000000, 34.000000)">
                    <mask id="mask-2" fill="white">
                        <use xlink:href="#path-1"></use>
                    </mask>
                    <g id="Clip-2"></g>
                    <path d="M9.0907,39.7871 C8.4457,36.3901 8.4377,33.0521 9.7067,29.8661 C12.2887,23.3851 14.2827,16.7241 16.2977,10.0541 C16.9557,7.8761 16.1857,6.1811 15.9447,4.2601 C15.7647,2.8291 15.2897,1.2001 16.9687,0.2521 C17.7427,-0.1849 18.6327,-0.0299 19.3027,0.5361 C20.5837,1.6171 20.7527,2.8551 20.1897,4.5271 C17.6037,12.1981 20.5637,19.2081 23.3877,26.0471 C24.6157,29.0211 28.7637,29.0481 31.7387,31.9641 C27.3917,30.9401 24.3147,29.3871 20.9037,27.0631 C20.6677,35.5181 18.6937,43.6111 22.0507,51.6741 C24.3557,57.2101 25.4027,63.1501 26.5047,69.0191 C27.0027,71.6731 27.3737,73.9811 31.6777,73.6451 C25.4157,76.9151 25.1657,76.9311 24.0187,71.4721 C22.5387,64.4341 20.1527,57.8191 15.8057,50.9201 C12.6907,59.6541 8.3707,67.0091 3.0107,73.7421 C1.3307,75.8521 4.1427,76.9101 4.2137,78.6181 C-0.1373,77.4881 -1.2173,75.5461 1.4337,72.1211 C11.5057,59.1061 12.4787,43.8941 12.5987,28.4071 C10.1387,31.7971 10.8997,36.1611 9.0907,39.7871" id="Fill-1" fill="#231F20" mask="url(#mask-2)"></path>
                </g>
                <g id="Page-1" transform="translate(268.000000, 0.000000)">
                    <g id="Group-3" transform="translate(3.000000, 0.738500)">
                        <path d="M25.5551,34.7968 C25.2591,36.0838 25.7851,38.4668 23.6021,38.0248 C21.6241,37.6238 23.1871,35.7678 23.3701,34.6728 C24.4321,28.2768 25.6141,21.8988 26.8661,15.5378 C27.1441,14.1218 27.1041,12.3588 28.5711,11.5258 C32.0031,9.5788 32.9161,6.9888 31.5931,3.2158 C31.0871,1.7708 32.1171,0.1718 34.0461,0.2658 C35.6971,0.3458 36.6261,2.0448 36.1071,3.0898 C34.3071,6.7158 36.3851,9.0088 38.1021,11.7748 C39.4731,13.9838 39.9031,16.7588 40.9371,19.2038 C42.0871,21.9208 42.8661,24.4578 40.3801,26.9238 C39.0471,28.2458 39.5291,30.0648 39.5981,31.6908 C40.2111,46.1538 40.8251,60.6168 41.5371,75.0748 C41.6641,77.6548 41.3051,79.4158 38.1671,78.9148 C37.3821,78.7888 36.2721,78.7898 35.9101,78.2958 C35.1051,77.1958 36.0531,76.6108 37.0231,76.1228 C37.9111,75.6768 37.7821,74.7538 37.7561,73.9338 C37.4331,63.6278 37.3841,53.3088 36.2681,43.0428 C36.2441,42.8208 35.8441,42.6398 35.3021,42.1558 C33.3531,43.6518 33.7941,45.9198 33.5951,47.8668 C32.6431,57.1358 31.6531,66.4018 30.9291,75.6888 C30.6521,79.2258 28.5341,79.0698 26.1101,78.8648 C25.4341,78.8078 24.7781,78.6218 24.6131,77.8318 C24.3711,76.6778 25.1411,76.3428 26.0311,76.3748 C28.5551,76.4658 28.4141,74.7198 28.5241,73.0178 C29.3871,59.7368 30.2161,46.4538 31.2001,33.1828 C31.5161,28.9128 30.3781,25.0018 28.5341,21.2048 C27.5491,25.7368 26.5981,30.2778 25.5551,34.7968 Z" id="Fill-1" fill="#231F20"></path>
                        <path d="M24.2649756,36.6762737 C16.3689539,58.4507351 8.4867037,69.3189773 0.70620344,69.3189773 L0.45620344,69.3189773 L0.45620344,69.8189773 L0.70620344,69.8189773 C8.78823422,69.8189773 16.7685151,58.815568 24.7350244,36.8467263 L24.8202507,36.6117019 L24.3502019,36.4412493 L24.2649756,36.6762737 Z" id="Line-2" fill="#000000" fill-rule="nonzero"></path>
                    </g>
                    <g id="Group-6" transform="translate(0.000000, 67.738500)">
                        <mask id="mask-4" fill="white">
                            <use xlink:href="#path-3"></use>
                        </mask>
                        <g id="Clip-5"></g>
                        <path d="M1.6971,7.9314 C0.9521,6.6874 4.3581,5.0574 1.2521,3.9314 C0.1021,3.5144 -0.6149,2.3354 0.7251,1.2664 C1.7411,0.4544 3.2631,-0.5426 4.1041,1.1434 C5.4091,3.7574 7.9551,4.1644 10.0031,4.0364 C13.9811,3.7864 13.3351,6.6414 13.9721,8.7464 C14.1901,9.4674 14.7931,10.3844 13.4741,10.6534 C12.5581,10.8384 10.8601,11.1014 10.7761,10.8704 C8.9721,5.9084 4.8511,8.4164 1.6971,7.9314" id="Fill-4" fill="#231F20" mask="url(#mask-4)"></path>
                    </g>
                </g>
            </g>
        </g>
    </g>
</svg>